<svg xmlns="http://www.w3.org/2000/svg" width="631" height="1255" viewBox="0 0 631 1255">
  <defs>
    <style>
      .cls-md-1,
      .cls-md-6 {
        fill: #2970ff;
        font-size: 100px;
        font-weight: 500;
      }

      .cls-md-2,
      .cls-md-8 {
        fill: #fff;
      }

      .cls-md-2 {
        font-size: 40px;
        font-weight: 200;
      }

      .cls-md-3,
      .cls-md-4,
      .cls-md-7 {
        fill: #787f98;
      }

      .cls-md-4,
      .cls-md-7 {
        font-size: 21px;
        font-weight: 300;
      }

      .cls-md-5 {
        fill: #b7b7b7;
      }

      .cls-md-6,
      .cls-md-7 {
        letter-spacing: -0.007em;
      }

      .cls-md-9 {
        fill: #091440;
        stroke: #2970ff;
        stroke-miterlimit: 10;
      }

      .cls-md-10,
      .cls-md-9 {
        stroke-width: 2px;
      }

      .cls-md-10 {
        fill: none;
        stroke: #787f98;
        stroke-linecap: round;
      }
    </style>
  </defs>
  <g transform="translate(-126)">
    <g>
      <g transform="translate(48)">
        <g>
          <text class="cls-md-1" transform="translate(403 97)">
            <tspan x="0" y="0" data-stat-name="circulating-supply">todo</tspan>
          </text>
          <text class="cls-md-2" transform="translate(403 54)">
            <tspan x="-264.673" y="0">CIRCULATING</tspan>
            <tspan x="-186.449" y="43">SUPPLY</tspan>
            <tspan class="cls-md-3" y="43">DCR</tspan>
          </text>
        </g>
        <text class="cls-md-4" transform="translate(395 134)">
          <tspan x="-205.705" y="0">COINS MINED</tspan>
          <tspan class="cls-md-5" y="0" xml:space="preserve" data-stat-name="coins-mined">todo</tspan>
          <tspan y="0">EMISSION</tspan>
          <tspan class="cls-md-5" y="0" xml:space="preserve" data-stat-name="coins-emission">todo</tspan>
        </text>
      </g>
      <g>
        <g transform="translate(-11)">
          <text class="cls-md-6" transform="translate(442 1214)">
            <tspan x="0" y="0" data-stat-name="reward-reduction-days">todo</tspan>
          </text>
          <text class="cls-md-2" transform="translate(442 1170)">
            <tspan x="-304.19" y="0">BLOCK REWARD</tspan>
            <tspan x="-283.864" y="43">REDUCTION IN</tspan>
          </text>
        </g>
        <text class="cls-md-7" transform="translate(442 1250)">
          <tspan x="-241.188" y="0">BLOCK REWARD REDUCES BY</tspan>
          <tspan class="cls-md-8" y="0">1%</tspan>
          <tspan y="0" xml:space="preserve">EVERY</tspan>
          <tspan class="cls-md-8" y="0">21 DAYS</tspan>
        </text>
      </g>
      <g>
        <g transform="translate(38)">
          <text class="cls-md-1" transform="translate(340 656)">
            <tspan x="0" y="0" data-stat-name="treasury">todo</tspan>
          </text>
          <text class="cls-md-2" transform="translate(340 612)">
            <tspan x="-202.486" y="0">TREASURY</tspan>
            <tspan class="cls-md-3">
              <tspan x="-24.83" y="43">$</tspan>
           </tspan>
          </text>
        </g>
        <text class="cls-md-7" transform="translate(442 691)">
          <tspan x="-249.741" y="0">SELF-FUNDED FROM</tspan>
          <tspan class="cls-md-8" y="0">10%</tspan>
          <tspan y="0" xml:space="preserve">OF THE BLOCK REWARD</tspan>
        </text>
      </g>
      <g transform="translate(-445)">
        <g transform="translate(12)">
          <text class="cls-md-1" transform="translate(783 935)">
            <tspan x="0" y="0" data-stat-name="stake-reward">todo</tspan>
          </text>
          <text class="cls-md-2" transform="translate(783 892)">
            <tspan x="-120.469" y="0">STAKE</tspan>
            <tspan x="-161.648" y="43">REWARD</tspan>
          </text>
        </g>
        <text class="cls-md-7" transform="translate(887 971)">
          <tspan x="-216.633" y="0">GET REWARDED FOR STAKING AND VOTING</tspan>
        </text>
      </g>
      <g transform="translate(-482)">
        <g transform="translate(97)">
          <text class="cls-md-1" transform="translate(798 377)">
            <tspan x="0" y="0" data-stat-name="total-staked">todo</tspan>
          </text>
          <text class="cls-md-2" transform="translate(798 333)">
            <tspan x="-122.088" y="0">TOTAL</tspan>
            <tspan x="-149.105" y="43">STAKED</tspan>
          </text>
        </g>
        <text class="cls-md-7" transform="translate(924 411)">
          <tspan x="-217.842" y="0">STAKING IS COMPLETELY SELF-CUSTODIAL</tspan>
        </text>
      </g>
    </g>
    <g transform="translate(-147.5)">
      <g>
        <path class="cls-md-9"
          d="M1.273,0H12.728A1.272,1.272,0,0,1,14,1.272V12.727A1.273,1.273,0,0,1,12.727,14H1.273A1.273,1.273,0,0,1,0,12.727V1.273A1.273,1.273,0,0,1,1.273,0Z"
          transform="translate(582.5 996)" />
        <line class="cls-md-10" y2="107" transform="translate(589.5 1003)" />
        <path class="cls-md-9"
          d="M1.273,0H12.728A1.272,1.272,0,0,1,14,1.272V12.727A1.273,1.273,0,0,1,12.727,14H1.273A1.273,1.273,0,0,1,0,12.727V1.273A1.273,1.273,0,0,1,1.273,0Z"
          transform="translate(582.5 1103)" />
      </g>
      <g transform="translate(0 -280)">
        <path class="cls-md-9"
          d="M1.273,0H12.728A1.272,1.272,0,0,1,14,1.272V12.727A1.273,1.273,0,0,1,12.727,14H1.273A1.273,1.273,0,0,1,0,12.727V1.273A1.273,1.273,0,0,1,1.273,0Z"
          transform="translate(582.5 996)" />
        <line class="cls-md-10" y2="107" transform="translate(589.5 1003)" />
        <path class="cls-md-9"
          d="M1.273,0H12.728A1.272,1.272,0,0,1,14,1.272V12.727A1.273,1.273,0,0,1,12.727,14H1.273A1.273,1.273,0,0,1,0,12.727V1.273A1.273,1.273,0,0,1,1.273,0Z"
          transform="translate(582.5 1103)" />
      </g>
      <g transform="translate(0 -560)">
        <path class="cls-md-9"
          d="M1.273,0H12.728A1.272,1.272,0,0,1,14,1.272V12.727A1.273,1.273,0,0,1,12.727,14H1.273A1.273,1.273,0,0,1,0,12.727V1.273A1.273,1.273,0,0,1,1.273,0Z"
          transform="translate(582.5 996)" />
        <path class="cls-md-10" d="M0,0V107" transform="translate(589.5 1003)" />
        <path class="cls-md-9"
          d="M1.273,0H12.728A1.272,1.272,0,0,1,14,1.272V12.727A1.273,1.273,0,0,1,12.727,14H1.273A1.273,1.273,0,0,1,0,12.727V1.273A1.273,1.273,0,0,1,1.273,0Z"
          transform="translate(582.5 1103)" />
      </g>
      <g transform="translate(0 -837)">
        <path class="cls-md-9"
          d="M1.273,0H12.728A1.272,1.272,0,0,1,14,1.272V12.727A1.273,1.273,0,0,1,12.727,14H1.273A1.273,1.273,0,0,1,0,12.727V1.273A1.273,1.273,0,0,1,1.273,0Z"
          transform="translate(582.5 996)" />
        <line class="cls-md-10" y2="107" transform="translate(589.5 1003)" />
        <path class="cls-md-9"
          d="M1.273,0H12.728A1.272,1.272,0,0,1,14,1.272V12.727A1.273,1.273,0,0,1,12.727,14H1.273A1.273,1.273,0,0,1,0,12.727V1.273A1.273,1.273,0,0,1,1.273,0Z"
          transform="translate(582.5 1103)" />
      </g>
    </g>
  </g>
</svg>