<svg id="Group_515" data-name="Group 515" xmlns="http://www.w3.org/2000/svg" width="376" height="1127" viewBox="0 0 376 1127">
  <defs>
    <style>
      .cls-1, .cls-5 {
        fill: #2970ff;
        font-size: 70px;
        font-family: Inter-Medium, Inter;
        font-weight: 500;
      }

      .cls-2, .cls-6 {
        fill: #fff;
        font-size: 30px;
        font-weight: 200;
      }

      .cls-2 {
        font-family: Inter-ExtraLight, Inter;
      }

      .cls-3 {
        fill: #787f98;
        font-size: 22px;
        font-family: Inter-Light, Inter;
        font-weight: 300;
      }

      .cls-4 {
        fill: #b7b7b7;
      }

      .cls-5 {
        letter-spacing: -0.007em;
      }

      .cls-6 {
        font-family: Inter-Thin, Inter;
      }

      .cls-10, .cls-7, .cls-8 {
        fill: none;
      }

      .cls-7, .cls-8 {
        stroke: #2970ff;
        stroke-width: 2px;
      }

      .cls-8 {
        stroke-linecap: round;
        stroke-linejoin: round;
      }

      .cls-9 {
        stroke: none;
      }
    </style>
  </defs>
  <g id="Group_507" data-name="Group 507">
    <g id="Group_340" data-name="Group 340" transform="translate(1 -22)">
      <text id="_12Mil" data-name="12Mil" class="cls-1" transform="translate(99 124)"><tspan x="0" y="0">12Mil</tspan></text>
      <text id="CIRCULATING_SUPPLY" data-name="CIRCULATING SUPPLY" class="cls-2" transform="translate(348 51)"><tspan x="-319.719" y="0">CIRCULATING SUPPLY</tspan></text>
    </g>
    <g id="Group_339" data-name="Group 339" transform="translate(-102 -26)">
      <text id="COINS_MINED_88_" data-name="COINS MINED 88%" class="cls-3" transform="translate(290 165)"><tspan x="-98.199" y="0">COINS MINED </tspan><tspan class="cls-4" y="0">88%</tspan></text>
      <text id="EMISSION_1_YEAR" data-name="EMISSION +1%/YEAR" class="cls-3" transform="translate(290 191)"><tspan x="-108.02" y="0">EMISSION </tspan><tspan class="cls-4" y="0">+1%/YEAR</tspan></text>
    </g>
  </g>
  <g id="Group_509" data-name="Group 509">
    <g id="Group_342" data-name="Group 342" transform="translate(-260 123)">
      <text id="_200Mil" data-name="200Mil" class="cls-1" transform="translate(448 495)"><tspan x="-115.527" y="0">200Mil</tspan></text>
      <text id="TREASURY" class="cls-2" transform="translate(448 423)"><tspan x="-75.932" y="0">TREASURY</tspan></text>
    </g>
  </g>
  <g id="Group_510" data-name="Group 510">
    <g id="Group_343" data-name="Group 343" transform="translate(-666 -49)">
      <text id="_5_APY" data-name="5%APY" class="cls-1" transform="translate(975 893)"><tspan x="-243.036" y="0">5%APY</tspan></text>
      <text id="VOTE_REWARD" data-name="VOTE REWARD" class="cls-2" transform="translate(854 821)"><tspan x="-102.875" y="0">VOTE REWARD</tspan></text>
    </g>
  </g>
  <g id="Group_511" data-name="Group 511">
    <g id="Group_344" data-name="Group 344" transform="translate(-218 -35)">
      <text id="_-1_3DAYS" data-name="-1%/3DAYS" class="cls-5" transform="translate(218 1145)"><tspan x="0" y="0">-1%/3DAYS</tspan></text>
      <text id="BLOCK_REWARD_REDUCTION" data-name="BLOCK REWARD
REDUCTION" class="cls-6" transform="translate(406 1031)"><tspan x="-112.841" y="0">BLOCK REWARD</tspan><tspan x="-86.548" y="40">REDUCTION</tspan></text>
    </g>
  </g>
  <g id="Group_508" data-name="Group 508">
    <g id="Group_341" data-name="Group 341" transform="translate(-582 140)">
      <text id="_65_" data-name="65%" class="cls-1" transform="translate(770 251)"><tspan x="-72.933" y="0">65%</tspan></text>
      <text id="TOTAL_STAKED" data-name="TOTAL STAKED" class="cls-2" transform="translate(770 178)"><tspan x="-105.916" y="0">TOTAL STAKED</tspan></text>
    </g>
  </g>
  <g id="Group_348" data-name="Group 348" transform="translate(-197 26)">
    <g id="Ellipse_54" data-name="Ellipse 54" class="cls-7" transform="translate(374 160)">
      <circle class="cls-9" cx="10.5" cy="10.5" r="10.5"/>
      <circle class="cls-10" cx="10.5" cy="10.5" r="9.5"/>
    </g>
    <path id="Path_2423" data-name="Path 2423" class="cls-8" d="M44.895,56v48.154" transform="translate(339.605 125)"/>
    <g id="Ellipse_58" data-name="Ellipse 58" class="cls-7" transform="translate(374 228)">
      <circle class="cls-9" cx="10.5" cy="10.5" r="10.5"/>
      <circle class="cls-10" cx="10.5" cy="10.5" r="9.5"/>
    </g>
  </g>
  <g id="Group_352" data-name="Group 352" transform="translate(-197 253)">
    <g id="Ellipse_54-2" data-name="Ellipse 54" class="cls-7" transform="translate(374 160)">
      <circle class="cls-9" cx="10.5" cy="10.5" r="10.5"/>
      <circle class="cls-10" cx="10.5" cy="10.5" r="9.5"/>
    </g>
    <path id="Path_2423-2" data-name="Path 2423" class="cls-8" d="M44.895,56v48.154" transform="translate(339.605 125)"/>
    <g id="Ellipse_58-2" data-name="Ellipse 58" class="cls-7" transform="translate(374 228)">
      <circle class="cls-9" cx="10.5" cy="10.5" r="10.5"/>
      <circle class="cls-10" cx="10.5" cy="10.5" r="9.5"/>
    </g>
  </g>
  <g id="Group_353" data-name="Group 353" transform="translate(-197 480)">
    <g id="Ellipse_54-3" data-name="Ellipse 54" class="cls-7" transform="translate(374 160)">
      <circle class="cls-9" cx="10.5" cy="10.5" r="10.5"/>
      <circle class="cls-10" cx="10.5" cy="10.5" r="9.5"/>
    </g>
    <path id="Path_2423-3" data-name="Path 2423" class="cls-8" d="M44.895,56v48.154" transform="translate(339.605 125)"/>
    <g id="Ellipse_58-3" data-name="Ellipse 58" class="cls-7" transform="translate(374 228)">
      <circle class="cls-9" cx="10.5" cy="10.5" r="10.5"/>
      <circle class="cls-10" cx="10.5" cy="10.5" r="9.5"/>
    </g>
  </g>
  <g id="Group_354" data-name="Group 354" transform="translate(-197 704)">
    <g id="Ellipse_54-4" data-name="Ellipse 54" class="cls-7" transform="translate(374 160)">
      <circle class="cls-9" cx="10.5" cy="10.5" r="10.5"/>
      <circle class="cls-10" cx="10.5" cy="10.5" r="9.5"/>
    </g>
    <path id="Path_2423-4" data-name="Path 2423" class="cls-8" d="M44.895,56v48.154" transform="translate(339.605 125)"/>
    <g id="Ellipse_58-4" data-name="Ellipse 58" class="cls-7" transform="translate(374 228)">
      <circle class="cls-9" cx="10.5" cy="10.5" r="10.5"/>
      <circle class="cls-10" cx="10.5" cy="10.5" r="9.5"/>
    </g>
  </g>
</svg>
