<svg xmlns="http://www.w3.org/2000/svg" width="788" height="1215" viewBox="0 0 788 1215">
  <defs>
    <style>
      .cls-lg-1, .cls-lg-8 {
        fill: #2970ff;
        font-size: 100px;
        font-weight: 500;
      }

      .cls-lg-2, .cls-lg-7 {
        fill: #fff;
      }

      .cls-lg-2 {
        font-size: 45px;
      }

      .cls-lg-2, .cls-lg-3, .cls-lg-7 {
        font-weight: 200;
      }

      .cls-lg-3 {
        fill: #787f98;
        font-size: 30px;
      }

      .cls-lg-4 {
        fill: #b7b7b7;
      }

      .cls-lg-10, .cls-lg-5, .cls-lg-6 {
        fill: none;
      }

      .cls-lg-5, .cls-lg-6 {
        stroke: #2970ff;
        stroke-width: 2px;
      }

      .cls-lg-6 {
        stroke-linecap: round;
        stroke-linejoin: round;
      }

      .cls-lg-7 {
        font-size: 40px;
      }

      .cls-lg-8 {
        letter-spacing: -0.007em;
      }

      .cls-lg-9 {
        stroke: none;
      }
    </style>
  </defs>
  <g transform="translate(-118)">
    <g>
      <g transform="translate(-20 -22)">
        <text class="cls-lg-1" transform="translate(434 119)"><tspan x="0" y="0">12Mil</tspan></text>
        <text class="cls-lg-2" transform="translate(138 79)"><tspan x="0" y="0">CIRCULATING</tspan><tspan x="0" y="40">SUPPLY</tspan></text>
      </g>
      <g transform="translate(-20 -26)">
        <text class="cls-lg-3" transform="translate(138 165)"><tspan x="0" y="0">COINS MINED </tspan><tspan class="cls-lg-4" y="0">88%</tspan></text>
        <text class="cls-lg-3" transform="translate(417 165)"><tspan x="0" y="0">EMISSION </tspan><tspan class="cls-lg-4" y="0">+1%/YEAR</tspan></text>
      </g>
    </g>
    <g transform="translate(-152 -26)">
      <g class="cls-lg-5" transform="translate(623 339)">
        <circle class="cls-lg-9" cx="17" cy="17" r="17"/>
        <circle class="cls-lg-10" cx="17" cy="17" r="16"/>
      </g>
      <path class="cls-lg-6" d="M249.25,1H99.895a55,55,0,0,0-55,55V165.7" transform="translate(374.105 355)"/>
      <g class="cls-lg-5" transform="translate(402 519)">
        <circle class="cls-lg-9" cx="17" cy="17" r="17"/>
        <circle class="cls-lg-10" cx="17" cy="17" r="16"/>
      </g>
    </g>
    <g>
      <g transform="translate(0 -32)">
        <text class="cls-lg-1" transform="translate(483 667)"><tspan x="-165.039" y="0">200Mil</tspan></text>
        <text class="cls-lg-7" transform="translate(218 645)"><tspan x="-99.716" y="0">TREASURY</tspan></text>
      </g>
    </g>
    <g>
      <g transform="translate(-236 -49)">
        <text class="cls-lg-1" transform="translate(983 950)"><tspan x="-347.195" y="0">5%APY</tspan></text>
        <text class="cls-lg-7" transform="translate(1142 908)"><tspan x="-99.886" y="0">VOTE</tspan><tspan x="-159.205" y="40">REWARD</tspan></text>
      </g>
    </g>
    <g>
      <g transform="translate(-20 -17)">
        <text class="cls-lg-8" transform="translate(303 1185)"><tspan x="0" y="0">-1%/3DAYS</tspan></text>
        <text class="cls-lg-7" transform="translate(138 1142)"><tspan x="0" y="0">BLOCK</tspan><tspan x="0" y="40">REWARD</tspan><tspan x="0" y="80">REDUCTION</tspan></text>
      </g>
    </g>
    <g transform="translate(-112 -43)">
      <g class="cls-lg-5" transform="translate(444 891)">
        <circle class="cls-lg-9" cx="17" cy="17" r="17"/>
        <circle class="cls-lg-10" cx="17" cy="17" r="16"/>
      </g>
      <path class="cls-lg-6" d="M103.43,1H99.895a55,55,0,0,0-55,55V165.7" transform="translate(340.676 907)"/>
      <g class="cls-lg-5" transform="translate(368.57 1071)">
        <circle class="cls-lg-9" cx="17" cy="17" r="17"/>
        <circle class="cls-lg-10" cx="17" cy="17" r="16"/>
      </g>
    </g>
    <g>
      <g transform="translate(-236 -26)">
        <text class="cls-lg-1" transform="translate(873 391)"><tspan x="-104.19" y="0">65%</tspan></text>
        <text class="cls-lg-2" transform="translate(1142 351)"><tspan x="-135.384" y="0">TOTAL</tspan><tspan x="-165.234" y="40">STAKED</tspan></text>
      </g>
    </g>
    <g transform="translate(-145.285 -12)">
      <g class="cls-lg-5" transform="translate(833.285 56)">
        <circle class="cls-lg-9" cx="17" cy="17" r="17"/>
        <circle class="cls-lg-10" cx="17" cy="17" r="16"/>
      </g>
      <path class="cls-lg-6" d="M44.895,1H48.43a55,55,0,0,1,55,55V165.7" transform="translate(822.285 72)"/>
      <g class="cls-lg-5" transform="translate(908.715 236)">
        <circle class="cls-lg-9" cx="17" cy="17" r="17"/>
        <circle class="cls-lg-10" cx="17" cy="17" r="16"/>
      </g>
    </g>
    <g transform="translate(-157.285 -30)">
      <g class="cls-lg-5" transform="translate(832.285 610.5)">
        <circle class="cls-lg-9" cx="17" cy="17" r="17"/>
        <circle class="cls-lg-10" cx="17" cy="17" r="16"/>
      </g>
      <path class="cls-lg-6" d="M44.895,1H48.43a55,55,0,0,1,55,55V165.7" transform="translate(821.285 626.5)"/>
      <g class="cls-lg-5" transform="translate(907.715 790.5)">
        <circle class="cls-lg-9" cx="17" cy="17" r="17"/>
        <circle class="cls-lg-10" cx="17" cy="17" r="16"/>
      </g>
    </g>
  </g>
</svg>
