<svg xmlns="http://www.w3.org/2000/svg" width="570" height="1251" viewBox="0 0 570 1251">
  <defs>
    <style>
      .cls-md-1, .cls-md-6 {
        fill: #2970ff;
        font-size: 100px;
        font-weight: 500;
      }

      .cls-md-2, .cls-md-5 {
        fill: #fff;
      }

      .cls-md-2 {
        font-size: 45px;
      }

      .cls-md-2, .cls-md-3, .cls-md-5 {
        font-weight: 200;
      }

      .cls-md-3 {
        fill: #787f98;
        font-size: 30px;
      }

      .cls-md-4 {
        fill: #b7b7b7;
      }

      .cls-md-5 {
        font-size: 40px;
      }

      .cls-md-6 {
        letter-spacing: -0.007em;
      }

      .cls-md-10, .cls-md-7, .cls-md-8 {
        fill: none;
      }

      .cls-md-7, .cls-md-8 {
        stroke: #2970ff;
        stroke-width: 2px;
      }

      .cls-md-8 {
        stroke-linecap: round;
        stroke-linejoin: round;
      }

      .cls-md-9 {
        stroke: none;
      }
    </style>
  </defs>
  <g transform="translate(-100)">
    <g>
      <g transform="translate(1 -22)">
        <text class="cls-md-1" transform="translate(413 119)"><tspan x="0" y="0" data-stat-name="circulating-supply">12Mil</tspan></text>
        <text class="cls-md-2" transform="translate(402 79)"><tspan x="-295.888" y="0">CIRCULATING</tspan><tspan x="-167.28" y="40">SUPPLY</tspan></text>
      </g>
      <g transform="translate(-38 -26)">
        <text class="cls-md-3" transform="translate(138 165)"><tspan x="0" y="0">COINS MINED </tspan><tspan class="cls-md-4" y="0" data-stat-name="coins-mined">88%</tspan></text>
        <text class="cls-md-3" transform="translate(417 165)"><tspan x="0" y="0">EMISSION </tspan><tspan class="cls-md-4" y="0" data-stat-name="coins-emission">+1%/YEAR</tspan></text>
      </g>
    </g>
    <g>
      <g transform="translate(-100 -8)">
        <text class="cls-md-1" transform="translate(589 667)"><tspan x="-165.039" y="0" data-stat-name="treasury">200Mil</tspan></text>
        <text class="cls-md-5" transform="translate(314 645)"><tspan x="-99.716" y="0">TREASURY</tspan></text>
      </g>
    </g>
    <g>
      <g transform="translate(-586 -32)">
        <text class="cls-md-1" transform="translate(1226 950)"><tspan x="-347.195" y="0" data-stat-name="stake-reward">5%APY</tspan></text>
        <text class="cls-md-5" transform="translate(873 908)"><tspan x="-99.886" y="0">VOTE</tspan><tspan x="-159.205" y="40">REWARD</tspan></text>
      </g>
    </g>
    <g>
      <g transform="translate(-58 62)">
        <text class="cls-md-6" transform="translate(174 1165)"><tspan x="0" y="0" data-stat-name="reward-reduction">-1%/3DAYS</tspan></text>
        <text class="cls-md-5" transform="translate(442 1072)"><tspan x="-271.477" y="0">BLOCK REWARD REDUCTION</tspan></text>
      </g>
    </g>
    <g>
      <g transform="translate(-422 9)">
        <text class="cls-md-1" transform="translate(893 391)"><tspan x="-104.19" y="0" data-stat-name="reward-total-staked">65%</tspan></text>
        <text class="cls-md-2" transform="translate(781 351)"><tspan x="-135.384" y="0">TOTAL</tspan><tspan x="-165.234" y="40">STAKED</tspan></text>
      </g>
    </g>
    <g>
      <g class="cls-md-7" transform="translate(374 160)">
        <circle class="cls-md-9" cx="10.5" cy="10.5" r="10.5"/>
        <circle class="cls-md-10" cx="10.5" cy="10.5" r="9.5"/>
      </g>
      <path class="cls-md-8" d="M44.895,56V158" transform="translate(339.605 125)"/>
      <g class="cls-md-7" transform="translate(374 283)">
        <circle class="cls-md-9" cx="10.5" cy="10.5" r="10.5"/>
        <circle class="cls-md-10" cx="10.5" cy="10.5" r="9.5"/>
      </g>
    </g>
    <g transform="translate(0 262)">
      <g class="cls-md-7" transform="translate(374 160)">
        <circle class="cls-md-9" cx="10.5" cy="10.5" r="10.5"/>
        <circle class="cls-md-10" cx="10.5" cy="10.5" r="9.5"/>
      </g>
      <path class="cls-md-8" d="M44.895,56V158" transform="translate(339.605 125)"/>
      <g class="cls-md-7" transform="translate(374 283)">
        <circle class="cls-md-9" cx="10.5" cy="10.5" r="10.5"/>
        <circle class="cls-md-10" cx="10.5" cy="10.5" r="9.5"/>
      </g>
    </g>
    <g transform="translate(0 520)">
      <g class="cls-md-7" transform="translate(374 160)">
        <circle class="cls-md-9" cx="10.5" cy="10.5" r="10.5"/>
        <circle class="cls-md-10" cx="10.5" cy="10.5" r="9.5"/>
      </g>
      <path class="cls-md-8" d="M44.895,56V158" transform="translate(339.605 125)"/>
      <g class="cls-md-7" transform="translate(374 283)">
        <circle class="cls-md-9" cx="10.5" cy="10.5" r="10.5"/>
        <circle class="cls-md-10" cx="10.5" cy="10.5" r="9.5"/>
      </g>
    </g>
    <g transform="translate(0 779)">
      <g class="cls-md-7" transform="translate(374 160)">
        <circle class="cls-md-9" cx="10.5" cy="10.5" r="10.5"/>
        <circle class="cls-md-10" cx="10.5" cy="10.5" r="9.5"/>
      </g>
      <path class="cls-md-8" d="M44.895,56V158" transform="translate(339.605 125)"/>
      <g class="cls-md-7" transform="translate(374 283)">
        <circle class="cls-md-9" cx="10.5" cy="10.5" r="10.5"/>
        <circle class="cls-md-10" cx="10.5" cy="10.5" r="9.5"/>
      </g>
    </g>
  </g>
</svg>
