<svg xmlns="http://www.w3.org/2000/svg" width="788" height="1255" viewBox="0 0 788 1255">
  <defs>
    <style>
      .cls-lg-1,
      .cls-lg-6 {
        fill: #2970ff;
        font-size: 100px;
        font-weight: 500;
      }

      .cls-lg-2,
      .cls-lg-8 {
        fill: #fff;
      }

      .cls-lg-2 {
        font-size: 40px;
        font-weight: 200;
      }

      .cls-lg-3,
      .cls-lg-4,
      .cls-lg-7 {
        fill: #787f98;
      }

      .cls-lg-4,
      .cls-lg-7 {
        font-size: 21px;
        font-weight: 300;
      }

      .cls-lg-5 {
        fill: #b7b7b7;
      }

      .cls-lg-6,
      .cls-lg-7 {
        letter-spacing: -0.007em;
      }

      .cls-lg-9 {
        fill: #091440;
        stroke: #2970ff;
        stroke-miterlimit: 10;
      }

      .cls-lg-10,
      .cls-lg-11,
      .cls-lg-9 {
        stroke-width: 2px;
      }

      .cls-lg-10,
      .cls-lg-11 {
        fill: none;
        stroke-linecap: round;
      }

      .cls-lg-10 {
        stroke: #787f98;
        stroke-linejoin: round;
      }

      .cls-lg-11 {
        stroke: #707070;
      }
    </style>
  </defs>
  <g transform="translate(-138)">
    <g>
      <g>
        <g>
          <text class="cls-lg-1" transform="translate(403 97)">
            <tspan x="0" y="0" data-stat-name="circulating-supply">todo</tspan>
          </text>
          <text class="cls-lg-2" transform="translate(138 54)">
            <tspan x="0" y="0">CIRCULATING</tspan>
            <tspan x="0" y="43">SUPPLY</tspan>
            <tspan class="cls-lg-3" y="43">DCR</tspan>
          </text>
        </g>
        <text class="cls-lg-4" transform="translate(138 134)">
          <tspan x="0" y="0">COINS MINED</tspan>
          <tspan class="cls-lg-5" y="0" xml:space="preserve" data-stat-name="coins-mined">todo</tspan>
          <tspan y="0">EMISSION</tspan>
          <tspan class="cls-lg-5" y="0" xml:space="preserve" data-stat-name="coins-emission">todo</tspan>
        </text>
      </g>
      <g>
        <g>
          <text class="cls-lg-6" transform="translate(442 1214)">
            <tspan x="0" y="0" data-stat-name="reward-reduction-days">todo</tspan>
          </text>
          <text class="cls-lg-2" transform="translate(138 1170)">
            <tspan x="0" y="0">BLOCK REWARD</tspan>
            <tspan x="0" y="43">REDUCTION IN</tspan>
          </text>
        </g>
        <text class="cls-lg-7" transform="translate(138 1250)">
          <tspan x="0" y="0">BLOCK REWARD REDUCES BY</tspan>
          <tspan class="cls-lg-8" y="0">1%</tspan>
          <tspan y="0" xml:space="preserve">EVERY</tspan>
          <tspan class="cls-lg-8" y="0">21 DAYS</tspan>
        </text>
      </g>
      <g>
        <g>
          <text class="cls-lg-1" transform="translate(340 656)">
            <tspan x="0" y="0" data-stat-name="treasury">todo</tspan>
          </text>
          <text class="cls-lg-2" transform="translate(138 612)">
            <tspan x="0" y="0">TREASURY</tspan>
            <tspan class="cls-lg-3">
              <tspan x="0" y="43">$</tspan>
           </tspan>
          </text>
        </g>
        <text class="cls-lg-7" transform="translate(138 691)">
          <tspan x="0" y="0">SELF-FUNDED FROM</tspan>
          <tspan class="cls-lg-8" y="0">10%</tspan>
          <tspan y="0" xml:space="preserve">OF THE BLOCK REWARD</tspan>
        </text>
      </g>
      <g transform="translate(-216)">
        <g>
          <text class="cls-lg-1" transform="translate(979 935)">
            <tspan x="-347.195" y="0" data-stat-name="stake-reward">todo</tspan>
          </text>
          <text class="cls-lg-2" transform="translate(1141 892)">
            <tspan x="-120.469" y="0">STAKE</tspan>
            <tspan x="-161.648" y="43">REWARD</tspan>
          </text>
        </g>
        <text class="cls-lg-7" transform="translate(1142 971)">
          <tspan x="-433.265" y="0">GET REWARDED FOR STAKING AND VOTING</tspan>
        </text>
      </g>
      <g transform="translate(-216)">
        <g>
          <text class="cls-lg-1" transform="translate(993 377)">
            <tspan x="-208.381" y="0" data-stat-name="total-staked">todo</tspan>
          </text>
          <text class="cls-lg-2" transform="translate(1142 333)">
            <tspan x="-122.088" y="0">TOTAL</tspan>
            <tspan x="-149.105" y="43">STAKED</tspan>
          </text>
        </g>
        <text class="cls-lg-7" transform="translate(1142 411)">
          <tspan x="-435.683" y="0">STAKING IS COMPLETELY SELF-CUSTODIAL</tspan>
        </text>
      </g>
    </g>
    <g>
      <g>
        <path class="cls-lg-9"
          d="M1.273,0H12.728A1.272,1.272,0,0,1,14,1.272V12.727A1.273,1.273,0,0,1,12.727,14H1.273A1.273,1.273,0,0,1,0,12.727V1.273A1.273,1.273,0,0,1,1.273,0Z"
          transform="translate(520 159)" />
        <path class="cls-lg-10" d="M176.754,115V82.559a21,21,0,0,0-21-21H51a21,21,0,0,1-21-21V8.118"
          transform="translate(497 158)" />
        <path class="cls-lg-9"
          d="M1.273,0H12.728A1.272,1.272,0,0,1,14,1.272V12.727A1.273,1.273,0,0,1,12.727,14H1.273A1.273,1.273,0,0,1,0,12.727V1.273A1.273,1.273,0,0,1,1.273,0Z"
          transform="translate(666.5 266)" />
      </g>
      <g>
        <path class="cls-lg-9"
          d="M1.273,0H12.728A1.272,1.272,0,0,1,14,1.272V12.727A1.273,1.273,0,0,1,12.727,14H1.273A1.273,1.273,0,0,1,0,12.727V1.273A1.273,1.273,0,0,1,1.273,0Z"
          transform="translate(666.5 436)" />
        <path class="cls-lg-10" d="M8,357.882V325.441a21,21,0,0,1,21-21H155.581a21,21,0,0,0,21-21V251"
          transform="translate(497 192)" />
        <rect class="cls-lg-9" width="14" height="14" rx="1.273" transform="translate(498 543)" />
      </g>
      <g>
        <rect class="cls-lg-9" width="14" height="14" rx="1.273" transform="translate(498 716)" />
        <path class="cls-lg-10" d="M92.966,602.882V570.441a21,21,0,0,0-21-21H42a34,34,0,0,1-34-34V496"
          transform="translate(497 227)" />
        <path class="cls-lg-9"
          d="M1.273,0H12.728A1.272,1.272,0,0,1,14,1.272V12.727A1.273,1.273,0,0,1,12.727,14H1.273A1.273,1.273,0,0,1,0,12.727V1.273A1.273,1.273,0,0,1,1.273,0Z"
          transform="translate(582.5 822.917)" />
      </g>
      <g>
        <path class="cls-lg-9"
          d="M1.273,0H12.728A1.272,1.272,0,0,1,14,1.272V12.727A1.273,1.273,0,0,1,12.727,14H1.273A1.273,1.273,0,0,1,0,12.727V1.273A1.273,1.273,0,0,1,1.273,0Z"
          transform="translate(582.5 996)" />
        <line class="cls-lg-11" y2="107" transform="translate(589.5 1003)" />
        <path class="cls-lg-9"
          d="M1.273,0H12.728A1.272,1.272,0,0,1,14,1.272V12.727A1.273,1.273,0,0,1,12.727,14H1.273A1.273,1.273,0,0,1,0,12.727V1.273A1.273,1.273,0,0,1,1.273,0Z"
          transform="translate(582.5 1103)" />
      </g>
    </g>
  </g>
</svg>