<?xml version="1.0" encoding="UTF-8" standalone="no"?>
<svg
   xmlns:dc="http://purl.org/dc/elements/1.1/"
   xmlns:cc="http://creativecommons.org/ns#"
   xmlns:rdf="http://www.w3.org/1999/02/22-rdf-syntax-ns#"
   xmlns:svg="http://www.w3.org/2000/svg"
   xmlns="http://www.w3.org/2000/svg"
   id="svg7"
   version="1.1"
   viewBox="0 0 20 20"
   height="20"
   width="20">
  <metadata
     id="metadata13">
    <rdf:RDF>
      <cc:Work
         rdf:about="">
        <dc:format>image/svg+xml</dc:format>
        <dc:type
           rdf:resource="http://purl.org/dc/dcmitype/StillImage" />
        <dc:title></dc:title>
      </cc:Work>
    </rdf:RDF>
  </metadata>
  <defs
     id="defs11" />
  <g
     transform="translate(22350,1049)"
     data-name="Symbol 1075 – 1"
     id="Symbol_1075_1">
    <g
       transform="translate(-23274.945,-1734.945)"
       data-name="Symbol 1054"
       id="Symbol_1054">
      <g
         transform="translate(927,689.1)"
         data-name="Group 179"
         id="Group_179">
        <path
           style="fill:#ffffff"
           d="m 12.517,13.912 a 0.59,0.59 0 0 1 -0.345,-0.107 l -3.907,-2.651 -2.1,1.51 A 0.633,0.633 0 0 1 5.599,12.746 0.615,0.615 0 0 1 5.213,12.327 L 4.161,8.339 0.394,6.886 A 0.6,0.6 0 0 1 0,6.32 0.618,0.618 0 0 1 0.386,5.745 L 14.692,0.049 A 0.833,0.833 0 0 1 14.9,0 h 0.074 a 0.615,0.615 0 0 1 0.394,0.172 L 15.4,0.205 a 0.611,0.611 0 0 1 0.148,0.361 v 0.1 c 0,0.025 -0.008,0.049 -0.008,0.074 l -2.416,12.671 a 0.611,0.611 0 0 1 -0.369,0.451 0.589,0.589 0 0 1 -0.238,0.05 z M 8.61,9.9 12.09,12.264 13.97,2.4 7.182,8.938 8.594,9.89 A 0.025,0.025 0 0 1 8.61,9.9 Z M 5.7,9.373 l 0.468,1.765 1,-0.722 L 5.86,9.521 A 0.667,0.667 0 0 1 5.7,9.373 Z M 2.306,6.3 4.891,7.285 A 0.62,0.62 0 0 1 5.269,7.704 L 5.6,8.946 A 0.618,0.618 0 0 1 5.789,8.568 l 6.468,-6.221 z"
           data-name="Path 68"
           id="Path_68" />
      </g>
    </g>
    <rect
       style="fill:none"
       y="0"
       x="0"
       transform="translate(-22349,-1048)"
       height="18"
       width="18"
       data-name="Rectangle 2233"
       id="Rectangle_2233" />
  </g>
</svg>
