<svg xmlns="http://www.w3.org/2000/svg" xmlns:xlink="http://www.w3.org/1999/xlink" width="1280" height="800" viewBox="0 0 1280 800"><defs><style>.a{opacity:0.996;}.b{fill:url(#a);}.c{opacity:0.45;}.d{fill:#091440;}</style><linearGradient id="a" x1="0.906" y1="-0.15" x2="0.094" y2="1.15" gradientUnits="objectBoundingBox"><stop offset="0" stop-color="#122e76"/><stop offset="0" stop-color="#0f2666"/><stop offset="0.626" stop-color="#091440"/><stop offset="1" stop-color="#091440"/></linearGradient></defs><g class="a" transform="translate(167)"><rect class="b" width="1280" height="800" transform="translate(-167)"/><g class="c"><path class="d" d="M752.4,606l194,194H755.6l-320-320h198a160,160,0,0,0,0-320H569.2L409.2,0H626.4c176.73,0,320,143.27,320,320C946.4,449.78,889.2,551.6,752.4,606Z"/><path class="d" d="M194,194,0,0H190.8l320,320h-198a160,160,0,0,0,0,320h64.4l160,160H320C143.27,800,0,656.73,0,480,0,350.22,57.2,248.4,194,194Z"/></g></g></svg>