<svg xmlns="http://www.w3.org/2000/svg" xmlns:xlink="http://www.w3.org/1999/xlink" width="237" height="259" viewBox="0 0 237 259"><defs><style>.a,.c,.e,.f{fill:none;}.b{clip-path:url(#a);}.c{stroke:#2dd8a3;}.c,.f{stroke-linecap:round;stroke-linejoin:round;}.c,.e,.f{stroke-width:2px;}.d{fill:#091440;}.e,.f{stroke:#fff;}.e{stroke-miterlimit:10;}</style><clipPath id="a"><rect class="a" width="237" height="259" rx="7" transform="translate(105.768)"/></clipPath></defs><g transform="translate(-105.768)"><g class="b"><line class="c" y1="66.399" x2="48.241" transform="translate(277.311 170.182)"/><line class="c" x2="102.284" y2="21.172" transform="translate(223.268 149.01)"/><line class="c" x1="48.241" y1="66.399" transform="translate(120.984 170.182)"/><line class="c" y1="90.736" x2="51.744" transform="translate(69.24 170.181)"/><line class="c" x2="33.6" y2="70.606" transform="translate(291.952 99.575)"/><line class="c" y1="20.43" x2="68.684" transform="translate(154.584 79.145)"/><line class="c" y1="10.138" x2="77.535" transform="translate(43.45 170.181)"/><line class="c" y2="160.272" transform="translate(223.268 150.693)"/><line class="c" y1="74.384" x2="54.043" transform="translate(223.268 236.581)"/><line class="c" x2="51.744" y2="90.736" transform="translate(325.552 170.182)"/><line class="c" y1="21.172" x2="102.284" transform="translate(120.984 149.01)"/><line class="c" x1="54.043" y1="74.384" transform="translate(169.225 236.581)"/><line class="c" x2="68.684" y2="20.43" transform="translate(223.268 79.146)"/><line class="c" y1="70.606" x2="33.6" transform="translate(120.984 99.576)"/><line class="c" x2="77.535" y2="10.138" transform="translate(325.552 170.182)"/><line class="c" y2="71.547" transform="translate(223.268 79.146)"/><line class="c" x1="152.427" y2="110.746" transform="translate(70.841 150.693)"/><line class="c" x1="133.483" y1="23.452" transform="translate(89.785 127.241)"/><line class="c" x1="152.427" y1="110.746" transform="translate(223.268 150.694)"/><line class="c" y1="23.452" x2="133.483" transform="translate(223.268 127.241)"/><line class="c" x1="64.799" y2="27.666" transform="translate(89.785 99.575)"/><line class="c" x1="111.135" y2="80.744" transform="translate(43.449 99.575)"/><line class="c" x1="111.135" y1="80.744" transform="translate(291.952 99.575)"/><line class="c" x1="64.799" y1="27.666" transform="translate(291.952 99.575)"/><line class="c" x1="137.367" transform="translate(154.585 99.575)"/><line class="c" x1="68.684" y2="49.434" transform="translate(223.268 99.575)"/><line class="c" x2="68.684" y2="49.434" transform="translate(154.584 99.575)"/><line class="c" x1="99.985" y2="24.336" transform="translate(69.24 236.581)"/><line class="c" x1="33.401" y2="102.796" transform="translate(135.824 236.581)"/><line class="c" x1="54.043" y2="87.571" transform="translate(169.225 149.01)"/><line class="c" x2="54.043" y2="87.571" transform="translate(223.268 149.01)"/><line class="c" x2="108.085" transform="translate(169.225 236.581)"/><line class="c" x1="33.401" y1="102.796" transform="translate(277.311 236.581)"/><line class="c" x1="99.985" y1="24.336" transform="translate(277.311 236.581)"/><path class="d" d="M241.568,170.287h-36a2,2,0,0,1-2-2v-36a2,2,0,0,1,2-2h36a2,2,0,0,1,2,2v36a2,2,0,0,1-2,2"/><rect class="e" width="40" height="40" rx="2" transform="translate(203.568 130.287)"/><path class="f" d="M220.157,141.787l-6.588,6.549h20"/><path class="f" d="M226.98,158.787l6.588-6.549h-20"/><path class="d" d="M294.952,103.575h-6a1,1,0,0,1-1-1v-6a1,1,0,0,1,1-1h6a1,1,0,0,1,1,1v6a1,1,0,0,1-1,1"/><rect class="e" width="8" height="8" rx="1" transform="translate(287.952 95.575)"/><path class="d" d="M157.28,103.575h-6a1,1,0,0,1-1-1v-6a1,1,0,0,1,1-1h6a1,1,0,0,1,1,1v6a1,1,0,0,1-1,1"/><rect class="e" width="8" height="8" rx="1" transform="translate(150.28 95.575)"/><path class="d" d="M226.34,82.809h-6a1,1,0,0,1-1-1v-6a1,1,0,0,1,1-1h6a1,1,0,0,1,1,1v6a1,1,0,0,1-1,1"/><rect class="e" width="8" height="8" rx="1" transform="translate(219.34 74.809)"/><path class="d" d="M329.2,174.149h-6a1,1,0,0,1-1-1v-6a1,1,0,0,1,1-1h6a1,1,0,0,1,1,1v6a1,1,0,0,1-1,1"/><rect class="e" width="8" height="8" rx="1" transform="translate(322.203 166.149)"/><path class="d" d="M280.1,240.766h-6a1,1,0,0,1-1-1v-6a1,1,0,0,1,1-1h6a1,1,0,0,1,1,1v6a1,1,0,0,1-1,1"/><rect class="e" width="8" height="8" rx="1" transform="translate(273.102 232.766)"/><path class="d" d="M172.79,240.766h-6a1,1,0,0,1-1-1v-6a1,1,0,0,1,1-1h6a1,1,0,0,1,1,1v6a1,1,0,0,1-1,1"/><rect class="e" width="8" height="8" rx="1" transform="translate(165.79 232.766)"/><path class="d" d="M124.026,174.149h-6a1,1,0,0,1-1-1v-6a1,1,0,0,1,1-1h6a1,1,0,0,1,1,1v6a1,1,0,0,1-1,1"/><rect class="e" width="8" height="8" rx="1" transform="translate(117.026 166.149)"/></g></g></svg>