<svg xmlns="http://www.w3.org/2000/svg" xmlns:xlink="http://www.w3.org/1999/xlink" width="237" height="259" viewBox="0 0 237 259"><defs><style>.a,.d,.e,.f{fill:none;}.b{clip-path:url(#a);}.c{fill:#091440;}.d,.e{stroke:#2970ff;}.d,.f{stroke-miterlimit:10;}.d,.e,.f{stroke-width:2px;}.e{stroke-linecap:round;stroke-linejoin:round;}.f{stroke:#fff;}.g{fill:#fff;}</style><clipPath id="a"><rect class="a" width="237" height="259" rx="7"/></clipPath></defs><g class="b"><path class="c" d="M89.451,95.809h-10a2,2,0,0,1-2-2v-10a2,2,0,0,1,2-2h10a2,2,0,0,1,2,2v10a2,2,0,0,1-2,2"/><rect class="d" width="14" height="14" rx="2" transform="translate(77.451 81.809)"/><path class="c" d="M158.2,95.809h-10a2,2,0,0,1-2-2v-10a2,2,0,0,1,2-2h10a2,2,0,0,1,2,2v10a2,2,0,0,1-2,2"/><rect class="d" width="14" height="14" rx="2" transform="translate(146.197 81.809)"/><line class="c" x1="16" transform="translate(130.197 88.809)"/><line class="e" x1="16" transform="translate(130.197 88.809)"/><line class="c" x1="25.309" transform="translate(153.197 88.809)"/><line class="e" x1="25.309" transform="translate(153.197 88.809)"/><line class="c" x1="23.746" transform="translate(84.451 88.809)"/><line class="e" x1="23.746" transform="translate(84.451 88.809)"/><path class="c" d="M192.2,95.809h-10a2,2,0,0,1-2-2v-10a2,2,0,0,1,2-2h10a2,2,0,0,1,2,2v10a2,2,0,0,1-2,2"/><rect class="d" width="14" height="14" rx="2" transform="translate(180.197 81.809)"/><path class="c" d="M54.8,159.809h-10a2,2,0,0,1-2-2v-10a2,2,0,0,1,2-2h10a2,2,0,0,1,2,2v10a2,2,0,0,1-2,2"/><rect class="d" width="14" height="14" rx="2" transform="translate(42.803 145.809)"/><line class="c" x1="20" transform="translate(160.197 152.809)"/><line class="e" x1="20" transform="translate(160.197 152.809)"/><path class="c" d="M192.2,159.809h-10a2,2,0,0,1-2-2v-10a2,2,0,0,1,2-2h10a2,2,0,0,1,2,2v10a2,2,0,0,1-2,2"/><rect class="d" width="14" height="14" rx="2" transform="translate(180.197 145.809)"/><path class="c" d="M79.451,127.809h10a2,2,0,0,0,2-2v-10a2,2,0,0,0-2-2h-10a2,2,0,0,0-2,2v10a2,2,0,0,0,2,2"/><rect class="d" width="14" height="14" rx="2" transform="translate(77.451 113.809)"/><path class="c" d="M148.2,127.809h10a2,2,0,0,0,2-2v-10a2,2,0,0,0-2-2h-10a2,2,0,0,0-2,2v10a2,2,0,0,0,2,2"/><rect class="d" width="14" height="14" rx="2" transform="translate(146.197 113.809)"/><path class="c" d="M114.2,127.809h10a2,2,0,0,0,2-2v-10a2,2,0,0,0-2-2h-10a2,2,0,0,0-2,2v10a2,2,0,0,0,2,2"/><rect class="d" width="14" height="14" rx="2" transform="translate(112.197 113.809)"/><path class="c" d="M44.8,127.809h10a2,2,0,0,0,2-2v-10a2,2,0,0,0-2-2h-10a2,2,0,0,0-2,2v10a2,2,0,0,0,2,2"/><rect class="d" width="14" height="14" rx="2" transform="translate(42.803 113.809)"/><line class="c" x2="27.076" transform="translate(56.803 120.809)"/><line class="e" x2="27.076" transform="translate(56.803 120.809)"/><line class="c" x2="27.746" transform="translate(91.451 120.809)"/><line class="e" x2="27.746" transform="translate(91.451 120.809)"/><line class="c" x2="27" transform="translate(126.197 120.809)"/><line class="e" x2="27" transform="translate(126.197 120.809)"/><path class="c" d="M182.2,127.809h10a2,2,0,0,0,2-2v-10a2,2,0,0,0-2-2h-10a2,2,0,0,0-2,2v10a2,2,0,0,0,2,2"/><rect class="d" width="14" height="14" rx="2" transform="translate(180.197 113.809)"/><line class="e" y2="25" transform="translate(187.197 88.809)"/><line class="c" x2="27" transform="translate(160.197 120.809)"/><line class="e" x2="27" transform="translate(160.197 120.809)"/><line class="c" x1="27.648" transform="translate(49.803 152.809)"/><line class="e" x1="27.648" transform="translate(49.803 152.809)"/><path class="c" d="M54.8,223.809h-10a2,2,0,0,1-2-2v-10a2,2,0,0,1,2-2h10a2,2,0,0,1,2,2v10a2,2,0,0,1-2,2"/><rect class="d" width="14" height="14" rx="2" transform="translate(42.803 209.809)"/><path class="c" d="M89.451,223.809h-10a2,2,0,0,1-2-2v-10a2,2,0,0,1,2-2h10a2,2,0,0,1,2,2v10a2,2,0,0,1-2,2"/><rect class="d" width="14" height="14" rx="2" transform="translate(77.451 209.809)"/><path class="c" d="M158.2,223.809h-10a2,2,0,0,1-2-2v-10a2,2,0,0,1,2-2h10a2,2,0,0,1,2,2v10a2,2,0,0,1-2,2"/><rect class="d" width="14" height="14" rx="2" transform="translate(146.197 209.809)"/><line class="c" x1="16" transform="translate(130.197 216.809)"/><line class="e" x1="16" transform="translate(130.197 216.809)"/><line class="c" x1="27" transform="translate(153.197 216.809)"/><line class="e" x1="27" transform="translate(153.197 216.809)"/><line class="c" x1="23.746" transform="translate(84.451 216.809)"/><line class="e" x1="23.746" transform="translate(84.451 216.809)"/><path class="c" d="M192.2,223.809h-10a2,2,0,0,1-2-2v-10a2,2,0,0,1,2-2h10a2,2,0,0,1,2,2v10a2,2,0,0,1-2,2"/><rect class="d" width="14" height="14" rx="2" transform="translate(180.197 209.809)"/><path class="c" d="M79.451,191.809h10a2,2,0,0,0,2-2v-10a2,2,0,0,0-2-2h-10a2,2,0,0,0-2,2v10a2,2,0,0,0,2,2"/><rect class="d" width="14" height="14" rx="2" transform="translate(77.451 177.809)"/><path class="c" d="M148.2,191.809h10a2,2,0,0,0,2-2v-10a2,2,0,0,0-2-2h-10a2,2,0,0,0-2,2v10a2,2,0,0,0,2,2"/><rect class="d" width="14" height="14" rx="2" transform="translate(146.197 177.809)"/><path class="c" d="M114.2,191.809h10a2,2,0,0,0,2-2v-10a2,2,0,0,0-2-2h-10a2,2,0,0,0-2,2v10a2,2,0,0,0,2,2"/><rect class="d" width="14" height="14" rx="2" transform="translate(112.197 177.809)"/><path class="c" d="M44.8,191.809h10a2,2,0,0,0,2-2v-10a2,2,0,0,0-2-2h-10a2,2,0,0,0-2,2v10a2,2,0,0,0,2,2"/><rect class="d" width="14" height="14" rx="2" transform="translate(42.803 177.809)"/><line class="c" x2="27.076" transform="translate(56.803 184.809)"/><line class="e" x2="27.076" transform="translate(56.803 184.809)"/><line class="c" x2="27.746" transform="translate(91.451 184.809)"/><line class="e" x2="27.746" transform="translate(91.451 184.809)"/><line class="c" x2="27" transform="translate(126.197 184.809)"/><line class="e" x2="27" transform="translate(126.197 184.809)"/><path class="c" d="M182.2,191.809h10a2,2,0,0,0,2-2v-10a2,2,0,0,0-2-2h-10a2,2,0,0,0-2,2v10a2,2,0,0,0,2,2"/><rect class="d" width="14" height="14" rx="2" transform="translate(180.197 177.809)"/><line class="e" y2="25" transform="translate(187.197 152.809)"/><line class="e" y2="25" transform="translate(49.803 184.809)"/><line class="e" y2="25" transform="translate(49.803 120.809)"/><line class="c" x2="27" transform="translate(160.197 184.809)"/><line class="e" x2="27" transform="translate(160.197 184.809)"/><line class="c" x1="27.648" transform="translate(49.803 216.809)"/><line class="e" x1="27.648" transform="translate(49.803 216.809)"/><path class="c" d="M54.8,95.809h-10a2,2,0,0,1-2-2v-10a2,2,0,0,1,2-2h10a2,2,0,0,1,2,2v10a2,2,0,0,1-2,2"/><rect class="d" width="14" height="14" rx="2" transform="translate(42.803 81.809)"/><line class="c" x1="27.648" transform="translate(49.803 88.809)"/><line class="e" x1="27.648" transform="translate(49.803 88.809)"/><path class="c" d="M128.2,99.809h-18a2,2,0,0,1-2-2v-18a2,2,0,0,1,2-2h18a2,2,0,0,1,2,2v18a2,2,0,0,1-2,2"/><rect class="f" width="22" height="22" rx="2" transform="translate(108.197 77.809)"/><path class="c" d="M124.2,159.809h-10a2,2,0,0,1-2-2v-10a2,2,0,0,1,2-2h10a2,2,0,0,1,2,2v10a2,2,0,0,1-2,2"/><rect class="d" width="14" height="14" rx="2" transform="translate(112.197 145.809)"/><path class="c" d="M89.451,159.809h-10a2,2,0,0,1-2-2v-10a2,2,0,0,1,2-2h10a2,2,0,0,1,2,2v10a2,2,0,0,1-2,2"/><rect class="d" width="14" height="14" rx="2" transform="translate(77.451 145.809)"/><path class="c" d="M158.2,159.809h-10a2,2,0,0,1-2-2v-10a2,2,0,0,1,2-2h10a2,2,0,0,1,2,2v10a2,2,0,0,1-2,2"/><rect class="d" width="14" height="14" rx="2" transform="translate(146.197 145.809)"/><path class="c" d="M128.2,227.809h-18a2,2,0,0,1-2-2v-18a2,2,0,0,1,2-2h18a2,2,0,0,1,2,2v18a2,2,0,0,1-2,2"/><rect class="f" width="22" height="22" rx="2" transform="translate(108.197 205.809)"/><path class="g" d="M87.451,152.809a3,3,0,1,1-3-3,3,3,0,0,1,3,3"/><path class="f" d="M119.2,88.809l-34.746,64H153.2l-34,64"/><path class="g" d="M123.2,88.809a4,4,0,1,1-4-4,4,4,0,0,1,4,4"/><path class="g" d="M123.2,216.809a4,4,0,1,1-4-4,4,4,0,0,1,4,4"/><path class="g" d="M122.2,152.809a3,3,0,1,1-3-3,3,3,0,0,1,3,3"/><path class="g" d="M156.2,152.809a3,3,0,1,1-3-3,3,3,0,0,1,3,3"/></g></svg>