<svg xmlns="http://www.w3.org/2000/svg" xmlns:xlink="http://www.w3.org/1999/xlink" width="237" height="259" viewBox="0 0 237 259"><defs><style>.a,.c,.e,.f,.g{fill:none;}.b{clip-path:url(#a);}.c,.f{stroke:#2970ff;}.c,.g{stroke-linecap:round;stroke-linejoin:round;}.c,.e,.f,.g{stroke-width:2px;}.d{fill:#091440;}.e,.g{stroke:#fff;}.e,.f{stroke-miterlimit:10;}</style><clipPath id="a"><rect class="a" width="237" height="259" rx="7" transform="translate(1616.954 33.12)"/></clipPath></defs><g transform="translate(-1616.954 -33.12)"><g class="b"><line class="c" x2="69.028" y2="22.428" transform="translate(1665.204 271.617)"/><line class="c" x1="38.082" y2="52.415" transform="translate(1653.489 352.764)"/><line class="c" x1="9.056" y1="81.956" transform="translate(1603.587 251.597)"/><line class="c" x1="80.743" y1="16.713" transform="translate(1653.489 405.179)"/><line class="c" x2="38.082" y2="52.415" transform="translate(1776.893 352.764)"/><line class="c" y2="72.581" transform="translate(1734.232 221.465)"/><line class="c" y1="33.939" x2="75.146" transform="translate(1659.086 156.676)"/><line class="c" x1="69.028" y2="22.428" transform="translate(1734.232 271.617)"/><line class="c" x2="55.499" y2="60.982" transform="translate(1809.379 190.615)"/><line class="c" x1="40.847" y2="71.626" transform="translate(1814.974 333.553)"/><line class="c" x1="26.524" y1="55.736" transform="translate(1653.49 405.18)"/><line class="c" x1="54.219" y2="16.127" transform="translate(1734.232 460.916)"/><line class="c" y1="42.449" x2="44.812" transform="translate(1558.775 251.596)"/><line class="c" x1="32.093" y1="46.583" transform="translate(1560.191 350.594)"/><line class="c" x2="54.219" y2="29.501" transform="translate(1680.014 127.175)"/><line class="c" y1="44.917" x2="34.386" transform="translate(1592.284 145.997)"/><line class="c" x2="53.344" y2="18.822" transform="translate(1788.451 127.175)"/><line class="c" x1="61.205" y2="8.003" transform="translate(1814.975 397.177)"/><line class="c" x1="68.67" y1="88.482" transform="translate(1560.192 350.594)"/><line class="c" y1="92.651" x2="62.931" transform="translate(1563.739 145.997)"/><line class="c" x2="107.562" y2="31.219" transform="translate(1734.232 114.778)"/><line class="c" x1="53.716" y2="17.453" transform="translate(1560.191 333.141)"/><line class="c" y1="126.518" transform="translate(1734.232 294.045)"/><line class="c" x1="33.198" y1="45.693" transform="translate(1626.67 145.997)"/><line class="c" y1="45.693" x2="33.198" transform="translate(1808.597 145.997)"/><line class="c" x2="53.716" y2="17.453" transform="translate(1854.557 333.141)"/><line class="c" x2="61.618" y2="20.02" transform="translate(1603.587 251.597)"/><line class="c" x1="42.661" y2="58.719" transform="translate(1691.571 294.045)"/><line class="c" x1="40.847" y1="71.626" transform="translate(1612.643 333.553)"/><line class="c" x1="80.743" y2="16.713" transform="translate(1734.232 405.179)"/><line class="c" x2="42.661" y2="58.719" transform="translate(1734.232 294.045)"/><line class="c" y2="64.788" transform="translate(1734.232 156.676)"/><line class="c" y1="60.982" x2="55.499" transform="translate(1603.587 190.615)"/><line class="c" x1="61.618" y2="20.02" transform="translate(1803.26 251.597)"/><line class="c" x2="75.146" y2="33.939" transform="translate(1734.232 156.676)"/><line class="c" x1="54.219" y1="16.127" transform="translate(1680.013 460.916)"/><line class="c" x1="26.524" y2="55.736" transform="translate(1788.451 405.179)"/><line class="c" x1="1.417" y1="56.548" transform="translate(1558.774 294.046)"/><line class="c" x1="61.205" y1="8.003" transform="translate(1592.285 397.176)"/><line class="c" y1="18.822" x2="53.344" transform="translate(1626.67 127.175)"/><line class="c" x1="11.303" y1="60.683" transform="translate(1592.284 190.914)"/><line class="c" x2="34.386" y2="44.917" transform="translate(1841.794 145.997)"/><line class="c" y1="29.501" x2="54.219" transform="translate(1734.232 127.175)"/><line class="c" y1="111.946" x2="3.548" transform="translate(1560.191 238.648)"/><line class="c" x2="62.931" y2="92.651" transform="translate(1841.794 145.997)"/><line class="c" x1="68.67" y2="88.482" transform="translate(1839.603 350.594)"/><line class="c" x1="120.325" y2="39.095" transform="translate(1613.907 294.045)"/><line class="c" y1="56.479" transform="translate(1734.232 420.564)"/><line class="c" x1="74.364" y1="102.355" transform="translate(1659.868 191.69)"/><line class="c" y1="102.355" x2="74.364" transform="translate(1734.232 191.69)"/><line class="c" x2="120.325" y2="39.095" transform="translate(1734.232 294.045)"/><line class="c" y1="87.423" x2="120.325" transform="translate(1734.232 333.14)"/><line class="c" x2="105.371" y2="18.513" transform="translate(1734.232 420.563)"/><line class="c" x1="14.954" y2="105.936" transform="translate(1839.603 333.141)"/><line class="c" x1="45.961" y1="141.45" transform="translate(1808.596 191.691)"/><line class="c" y1="94.493" x2="50.168" transform="translate(1854.557 238.648)"/><line class="c" x2="96.129" y2="46.957" transform="translate(1808.597 191.69)"/><line class="c" x1="148.729" transform="translate(1659.868 191.69)"/><line class="c" x1="74.365" y1="76.913" transform="translate(1734.232 114.777)"/><line class="c" y1="76.913" x2="74.364" transform="translate(1659.868 114.777)"/><line class="c" x1="45.961" y2="141.45" transform="translate(1613.907 191.69)"/><line class="c" x1="96.129" y2="46.957" transform="translate(1563.739 191.69)"/><line class="c" x1="50.168" y1="94.493" transform="translate(1563.739 238.648)"/><line class="c" x2="120.325" y2="87.423" transform="translate(1613.907 333.141)"/><line class="c" x2="14.954" y2="105.935" transform="translate(1613.907 333.141)"/><line class="c" x1="105.371" y2="18.513" transform="translate(1628.861 420.563)"/><line class="c" y1="21.839" x2="51.152" transform="translate(1788.451 439.077)"/><line class="c" y1="63.739" x2="87.729" transform="translate(1788.451 397.177)"/><line class="c" y1="41.899" x2="36.577" transform="translate(1839.603 397.177)"/><line class="c" x1="54.219" y1="12.397" transform="translate(1734.232 114.778)"/><line class="c" x1="108.437" transform="translate(1680.014 127.175)"/><line class="c" x1="54.219" y2="12.397" transform="translate(1680.013 114.778)"/><line class="c" x1="28.545" y2="47.734" transform="translate(1563.739 190.914)"/><line class="c" x1="33.51" y2="103.131" transform="translate(1558.774 190.914)"/><line class="c" x1="4.964" y2="55.398" transform="translate(1558.775 238.648)"/><line class="c" x2="36.577" y2="41.899" transform="translate(1592.284 397.177)"/><line class="c" x2="87.73" y2="63.739" transform="translate(1592.284 397.177)"/><line class="c" x2="51.152" y2="21.839" transform="translate(1628.862 439.076)"/><line class="c" x1="87.729" y1="63.739" transform="translate(1788.451 127.175)"/><line class="c" x1="66.802" y1="0.299" transform="translate(1809.378 190.615)"/><line class="c" x2="20.928" y2="63.44" transform="translate(1788.451 127.175)"/><line class="c" x1="87.729" y2="63.739" transform="translate(1592.285 127.175)"/><line class="c" x1="20.928" y2="63.44" transform="translate(1659.086 127.175)"/><line class="c" y1="0.299" x2="66.802" transform="translate(1592.284 190.615)"/><line class="c" x2="33.51" y2="103.131" transform="translate(1558.775 294.045)"/><line class="c" x2="53.868" y2="39.508" transform="translate(1558.775 294.045)"/><line class="c" y1="63.624" x2="20.359" transform="translate(1592.284 333.553)"/><line class="c" x2="108.437" transform="translate(1680.014 460.916)"/><line class="c" y1="39.023" x2="54.219" transform="translate(1680.014 421.893)"/><line class="c" x1="54.219" y1="39.023" transform="translate(1734.232 421.893)"/><line class="c" y1="19.211" x2="78.928" transform="translate(1776.893 333.553)"/><line class="c" y1="81.147" x2="26.367" transform="translate(1776.893 271.617)"/><line class="c" x1="52.562" y1="61.936" transform="translate(1803.26 271.617)"/><line class="c" y1="81.002" x2="6.119" transform="translate(1803.26 190.615)"/><line class="c" x1="69.028" y1="50.152" transform="translate(1734.232 221.465)"/><line class="c" x1="75.146" y2="30.85" transform="translate(1734.233 190.615)"/><line class="c" x1="75.146" y1="30.85" transform="translate(1659.086 190.615)"/><line class="c" x1="69.028" y2="50.153" transform="translate(1665.204 221.465)"/><line class="c" x2="6.119" y2="81.002" transform="translate(1659.086 190.615)"/><line class="c" y1="69.128" x2="42.661" transform="translate(1734.232 352.764)"/><line class="c" x1="42.661" y1="69.128" transform="translate(1691.571 352.764)"/><line class="c" x1="85.322" transform="translate(1691.571 352.764)"/><line class="c" x1="52.561" y2="61.936" transform="translate(1612.643 271.617)"/><line class="c" x2="26.367" y2="81.147" transform="translate(1665.204 271.617)"/><line class="c" x2="78.928" y2="19.211" transform="translate(1612.643 333.553)"/><path class="d" d="M1659.454,190.039h-.167a3.25,3.25,0,0,1,0-6.5h.167a3.25,3.25,0,0,1,0,6.5"/><path class="e" d="M1659.454,190.039h-.167a3.25,3.25,0,0,1,0-6.5h.167a3.25,3.25,0,0,1,0,6.5Z"/><path class="d" d="M1663.37,196.539h-8a1,1,0,0,1-1-1v-.5a5,5,0,1,1,10,0v.5a1,1,0,0,1-1,1"/><path class="e" d="M1663.37,196.539h-8a1,1,0,0,1-1-1v-.5a5,5,0,1,1,10,0v.5A1,1,0,0,1,1663.37,196.539Z"/><path class="d" d="M1707.236,142.107h-.167a3.25,3.25,0,0,1,0-6.5h.167a3.25,3.25,0,0,1,0,6.5"/><path class="e" d="M1707.236,142.107h-.167a3.25,3.25,0,0,1,0-6.5h.167a3.25,3.25,0,0,1,0,6.5Z"/><path class="d" d="M1711.153,148.607h-8a1,1,0,0,1-1-1v-.5a5,5,0,0,1,10,0v.5a1,1,0,0,1-1,1"/><path class="e" d="M1711.153,148.607h-8a1,1,0,0,1-1-1v-.5a5,5,0,0,1,10,0v.5A1,1,0,0,1,1711.153,148.607Z"/><path class="d" d="M1679.723,126.107h-.168a3.25,3.25,0,0,1,0-6.5h.168a3.25,3.25,0,0,1,0,6.5"/><path class="e" d="M1679.723,126.107h-.168a3.25,3.25,0,0,1,0-6.5h.168a3.25,3.25,0,0,1,0,6.5Z"/><path class="d" d="M1683.639,132.607h-8a1,1,0,0,1-1-1v-.5a5,5,0,0,1,10,0v.5a1,1,0,0,1-1,1"/><path class="e" d="M1683.639,132.607h-8a1,1,0,0,1-1-1v-.5a5,5,0,0,1,10,0v.5A1,1,0,0,1,1683.639,132.607Z"/><path class="d" d="M1636.714,158.182h-.167a3.25,3.25,0,0,1,0-6.5h.167a3.25,3.25,0,0,1,0,6.5"/><path class="f" d="M1636.714,158.182h-.167a3.25,3.25,0,0,1,0-6.5h.167a3.25,3.25,0,0,1,0,6.5Z"/><path class="d" d="M1640.631,164.682h-8a1,1,0,0,1-1-1v-.5a5,5,0,0,1,10,0v.5a1,1,0,0,1-1,1"/><path class="f" d="M1640.631,164.682h-8a1,1,0,0,1-1-1v-.5a5,5,0,0,1,10,0v.5A1,1,0,0,1,1640.631,164.682Z"/><path class="d" d="M1665.454,271.246h-.167a3.25,3.25,0,0,1,0-6.5h.167a3.25,3.25,0,0,1,0,6.5"/><path class="f" d="M1665.454,271.246h-.167a3.25,3.25,0,0,1,0-6.5h.167a3.25,3.25,0,0,1,0,6.5Z"/><path class="d" d="M1669.37,277.746h-8a1,1,0,0,1-1-1v-.5a5,5,0,0,1,10,0v.5a1,1,0,0,1-1,1"/><path class="f" d="M1669.37,277.746h-8a1,1,0,0,1-1-1v-.5a5,5,0,0,1,10,0v.5A1,1,0,0,1,1669.37,277.746Z"/><path class="d" d="M1699.151,245.751h-.167a3.25,3.25,0,0,1,0-6.5h.167a3.25,3.25,0,0,1,0,6.5"/><path class="e" d="M1699.151,245.751h-.167a3.25,3.25,0,0,1,0-6.5h.167a3.25,3.25,0,0,1,0,6.5Z"/><path class="d" d="M1703.068,252.251h-8a1,1,0,0,1-1-1v-.5a5,5,0,0,1,10,0v.5a1,1,0,0,1-1,1"/><path class="e" d="M1703.068,252.251h-8a1,1,0,0,1-1-1v-.5a5,5,0,0,1,10,0v.5A1,1,0,0,1,1703.068,252.251Z"/><path class="d" d="M1636.714,261.751h-.167a3.25,3.25,0,1,1,0-6.5h.167a3.25,3.25,0,0,1,0,6.5"/><path class="e" d="M1636.714,261.751h-.167a3.25,3.25,0,1,1,0-6.5h.167a3.25,3.25,0,0,1,0,6.5Z"/><path class="d" d="M1640.631,268.251h-8a1,1,0,0,1-1-1v-.5a5,5,0,0,1,10,0v.5a1,1,0,0,1-1,1"/><path class="e" d="M1640.631,268.251h-8a1,1,0,0,1-1-1v-.5a5,5,0,0,1,10,0v.5A1,1,0,0,1,1640.631,268.251Z"/><path class="d" d="M1626.068,142.182h-.167a3.25,3.25,0,0,1,0-6.5h.167a3.25,3.25,0,0,1,0,6.5"/><path class="e" d="M1626.068,142.182h-.167a3.25,3.25,0,0,1,0-6.5h.167a3.25,3.25,0,0,1,0,6.5Z"/><path class="d" d="M1629.984,148.682h-8a1,1,0,0,1-1-1v-.5a5,5,0,0,1,10,0v.5a1,1,0,0,1-1,1"/><path class="e" d="M1629.984,148.682h-8a1,1,0,0,1-1-1v-.5a5,5,0,0,1,10,0v.5A1,1,0,0,1,1629.984,148.682Z"/><path class="d" d="M1722.511,126.107h-.167a3.25,3.25,0,0,1,0-6.5h.167a3.25,3.25,0,0,1,0,6.5"/><path class="f" d="M1722.511,126.107h-.167a3.25,3.25,0,0,1,0-6.5h.167a3.25,3.25,0,0,1,0,6.5Z"/><path class="d" d="M1726.427,132.607h-8a1,1,0,0,1-1-1v-.5a5,5,0,0,1,10,0v.5a1,1,0,0,1-1,1"/><path class="f" d="M1726.427,132.607h-8a1,1,0,0,1-1-1v-.5a5,5,0,0,1,10,0v.5A1,1,0,0,1,1726.427,132.607Z"/><path class="d" d="M1809.2,190.039h.167a3.25,3.25,0,0,0,0-6.5h-.167a3.25,3.25,0,0,0,0,6.5"/><path class="e" d="M1809.2,190.039h.167a3.25,3.25,0,0,0,0-6.5h-.167a3.25,3.25,0,0,0,0,6.5Z"/><path class="d" d="M1805.282,196.539h8a1,1,0,0,0,1-1v-.5a5,5,0,1,0-10,0v.5a1,1,0,0,0,1,1"/><path class="e" d="M1805.282,196.539h8a1,1,0,0,0,1-1v-.5a5,5,0,1,0-10,0v.5A1,1,0,0,0,1805.282,196.539Z"/><path class="d" d="M1761.416,142.107h.167a3.25,3.25,0,0,0,0-6.5h-.167a3.25,3.25,0,0,0,0,6.5"/><path class="e" d="M1761.416,142.107h.167a3.25,3.25,0,0,0,0-6.5h-.167a3.25,3.25,0,0,0,0,6.5Z"/><path class="d" d="M1757.5,148.607h8a1,1,0,0,0,1-1v-.5a5,5,0,0,0-10,0v.5a1,1,0,0,0,1,1"/><path class="e" d="M1757.5,148.607h8a1,1,0,0,0,1-1v-.5a5,5,0,0,0-10,0v.5A1,1,0,0,0,1757.5,148.607Z"/><path class="d" d="M1788.929,126.107h.167a3.25,3.25,0,0,0,0-6.5h-.167a3.25,3.25,0,0,0,0,6.5"/><path class="f" d="M1788.929,126.107h.167a3.25,3.25,0,0,0,0-6.5h-.167a3.25,3.25,0,0,0,0,6.5Z"/><path class="d" d="M1785.013,132.607h8a1,1,0,0,0,1-1v-.5a5,5,0,0,0-10,0v.5a1,1,0,0,0,1,1"/><path class="f" d="M1785.013,132.607h8a1,1,0,0,0,1-1v-.5a5,5,0,0,0-10,0v.5A1,1,0,0,0,1785.013,132.607Z"/><path class="d" d="M1831.938,158.182h.167a3.25,3.25,0,0,0,0-6.5h-.167a3.25,3.25,0,0,0,0,6.5"/><path class="e" d="M1831.938,158.182h.167a3.25,3.25,0,0,0,0-6.5h-.167a3.25,3.25,0,0,0,0,6.5Z"/><path class="d" d="M1828.021,164.682h8a1,1,0,0,0,1-1v-.5a5,5,0,0,0-10,0v.5a1,1,0,0,0,1,1"/><path class="e" d="M1828.021,164.682h8a1,1,0,0,0,1-1v-.5a5,5,0,0,0-10,0v.5A1,1,0,0,0,1828.021,164.682Z"/><path class="d" d="M1803.2,271.246h.167a3.25,3.25,0,0,0,0-6.5h-.167a3.25,3.25,0,0,0,0,6.5"/><path class="e" d="M1803.2,271.246h.167a3.25,3.25,0,0,0,0-6.5h-.167a3.25,3.25,0,0,0,0,6.5Z"/><path class="d" d="M1799.282,277.746h8a1,1,0,0,0,1-1v-.5a5,5,0,0,0-10,0v.5a1,1,0,0,0,1,1"/><path class="e" d="M1799.282,277.746h8a1,1,0,0,0,1-1v-.5a5,5,0,0,0-10,0v.5A1,1,0,0,0,1799.282,277.746Z"/><path class="d" d="M1769.5,245.751h.167a3.25,3.25,0,0,0,0-6.5h-.167a3.25,3.25,0,0,0,0,6.5"/><path class="f" d="M1769.5,245.751h.167a3.25,3.25,0,0,0,0-6.5h-.167a3.25,3.25,0,0,0,0,6.5Z"/><path class="d" d="M1765.584,252.251h8a1,1,0,0,0,1-1v-.5a5,5,0,0,0-10,0v.5a1,1,0,0,0,1,1"/><path class="f" d="M1765.584,252.251h8a1,1,0,0,0,1-1v-.5a5,5,0,0,0-10,0v.5A1,1,0,0,0,1765.584,252.251Z"/><path class="d" d="M1831.938,261.751h.167a3.25,3.25,0,0,0,0-6.5h-.167a3.25,3.25,0,1,0,0,6.5"/><path class="f" d="M1831.938,261.751h.167a3.25,3.25,0,0,0,0-6.5h-.167a3.25,3.25,0,1,0,0,6.5Z"/><path class="d" d="M1828.021,268.251h8a1,1,0,0,0,1-1v-.5a5,5,0,0,0-10,0v.5a1,1,0,0,0,1,1"/><path class="f" d="M1828.021,268.251h8a1,1,0,0,0,1-1v-.5a5,5,0,0,0-10,0v.5A1,1,0,0,0,1828.021,268.251Z"/><path class="d" d="M1842.584,142.182h.167a3.25,3.25,0,0,0,0-6.5h-.167a3.25,3.25,0,0,0,0,6.5"/><path class="f" d="M1842.584,142.182h.167a3.25,3.25,0,0,0,0-6.5h-.167a3.25,3.25,0,0,0,0,6.5Z"/><path class="d" d="M1838.668,148.682h8a1,1,0,0,0,1-1v-.5a5,5,0,0,0-10,0v.5a1,1,0,0,0,1,1"/><path class="f" d="M1838.668,148.682h8a1,1,0,0,0,1-1v-.5a5,5,0,0,0-10,0v.5A1,1,0,0,0,1838.668,148.682Z"/><path class="d" d="M1746.141,126.107h.167a3.25,3.25,0,0,0,0-6.5h-.167a3.25,3.25,0,0,0,0,6.5"/><path class="e" d="M1746.141,126.107h.167a3.25,3.25,0,0,0,0-6.5h-.167a3.25,3.25,0,0,0,0,6.5Z"/><path class="d" d="M1742.225,132.607h8a1,1,0,0,0,1-1v-.5a5,5,0,0,0-10,0v.5a1,1,0,0,0,1,1"/><path class="e" d="M1742.225,132.607h8a1,1,0,0,0,1-1v-.5a5,5,0,0,0-10,0v.5A1,1,0,0,0,1742.225,132.607Z"/><line class="g" y2="183.848" transform="translate(1734.417 114.778)"/><path class="d" d="M1753.454,225.954h-36v-50h24.735l11.265,11.219Z"/><path class="g" d="M1753.454,225.954h-36v-50h24.735l11.265,11.219Z"/><path class="g" d="M1742.189,175.954v11.219h11.265"/><path class="d" d="M1741.454,204.029a6.154,6.154,0,0,1-2.136,4.692,3.615,3.615,0,0,0-1.293,2.736v1.809a1.739,1.739,0,0,1-1.714,1.753H1734.6a1.739,1.739,0,0,1-1.714-1.753v-1.809a3.614,3.614,0,0,0-1.293-2.736,6.154,6.154,0,0,1-2.136-4.692,6,6,0,1,1,12,0"/><path class="g" d="M1741.454,204.029a6.154,6.154,0,0,1-2.136,4.692,3.615,3.615,0,0,0-1.293,2.736v1.809a1.739,1.739,0,0,1-1.714,1.753H1734.6a1.739,1.739,0,0,1-1.714-1.753v-1.809a3.614,3.614,0,0,0-1.293-2.736,6.154,6.154,0,0,1-2.136-4.692,6,6,0,1,1,12,0Z"/><line class="g" x2="5.143" transform="translate(1732.883 211.019)"/><line class="g" y2="2.041" transform="translate(1735.454 192.019)"/><line class="g" x1="2.043" transform="translate(1723.454 204.065)"/><line class="g" x1="2.042" transform="translate(1745.412 204.065)"/><line class="g" x1="1.021" y2="1.026" transform="translate(1727.392 211.139)"/><line class="g" x1="1.021" y2="1.026" transform="translate(1743.517 195.964)"/><line class="g" x1="1.021" y1="1.026" transform="translate(1727.392 195.964)"/><line class="g" x1="1.021" y1="1.026" transform="translate(1742.495 211.139)"/></g></g></svg>