<svg xmlns="http://www.w3.org/2000/svg" xmlns:xlink="http://www.w3.org/1999/xlink" width="237" height="259" viewBox="0 0 237 259"><defs><style>.a,.d,.e,.f,.g,.h,.i,.j,.k,.l{fill:none;}.b{clip-path:url(#a);}.c{fill:#091440;}.d,.e,.f,.g,.h,.i{stroke:#2dd8a3;}.d,.f,.g,.h,.i,.j,.l{stroke-linejoin:round;}.d,.e,.f,.g,.h,.i,.j,.k,.l{stroke-width:2px;}.e,.k{stroke-miterlimit:10;}.f,.g,.h,.i,.l{stroke-linecap:round;}.g{stroke-dasharray:2.132 5.329;}.h{stroke-dasharray:1.957 4.894;}.i{stroke-dasharray:2.118 5.294;}.j,.k,.l{stroke:#fff;}</style><clipPath id="a"><rect class="a" width="237" height="259" rx="7" transform="translate(851.954 32.926)"/></clipPath></defs><g transform="translate(-851.954 -32.926)"><g class="b"><path class="c" d="M885.746,152.855c0,2.906-3.582,5.262-8,5.262s-8-2.356-8-5.262v-3.476h16Z"/><path class="d" d="M885.746,152.855c0,2.906-3.582,5.262-8,5.262s-8-2.356-8-5.262v-3.476h16Z"/><path class="c" d="M885.746,149.379c0,2.906-3.582,5.262-8,5.262s-8-2.356-8-5.262,3.582-5.262,8-5.262,8,2.356,8,5.262"/><ellipse class="e" cx="8" cy="5.262" rx="8" ry="5.262" transform="translate(869.746 144.117)"/><line class="c" x1="22.791" transform="translate(930.401 201.996)"/><line class="f" x1="22.791" transform="translate(930.401 201.996)"/><path class="c" d="M999.938,209h-10a2,2,0,0,1-2-2V197a2,2,0,0,1,2-2h10a2,2,0,0,1,2,2v10a2,2,0,0,1-2,2"/><rect class="e" width="14" height="14" rx="2" transform="translate(987.938 194.996)"/><line class="f" y1="0.881" x2="0.474" transform="translate(870.533 196.115)"/><line class="g" y1="37.077" x2="19.946" transform="translate(873.532 154.345)"/><path class="f" d="M894.74,152l.474-.881h1"/><line class="h" x2="38.66" transform="translate(901.108 151.117)"/><path class="f" d="M942.214,151.117h1l.463.886"/><line class="i" x2="19.373" y2="37.068" transform="translate(946.13 156.696)"/><line class="f" x2="0.463" y2="0.886" transform="translate(966.729 196.11)"/><path class="c" d="M882.533,209h-10a2,2,0,0,1-2-2V197a2,2,0,0,1,2-2h10a2,2,0,0,1,2,2v10a2,2,0,0,1-2,2"/><rect class="e" width="14" height="14" rx="2" transform="translate(870.533 194.996)"/><path class="c" d="M965.192,209h-10a2,2,0,0,1-2-2V197a2,2,0,0,1,2-2h10a2,2,0,0,1,2,2v10a2,2,0,0,1-2,2"/><rect class="e" width="14" height="14" rx="2" transform="translate(953.192 194.996)"/><path class="c" d="M1033.938,209h-10a2,2,0,0,1-2-2V197a2,2,0,0,1,2-2h10a2,2,0,0,1,2,2v10a2,2,0,0,1-2,2"/><rect class="e" width="14" height="14" rx="2" transform="translate(1021.938 194.996)"/><line class="c" x1="29.681" transform="translate(877.533 201.996)"/><line class="f" x1="29.681" transform="translate(877.533 201.996)"/><line class="c" x1="29.681" transform="translate(840.852 201.996)"/><line class="f" x1="29.681" transform="translate(840.852 201.996)"/><line class="c" x1="27" transform="translate(994.938 201.996)"/><line class="f" x1="27" transform="translate(994.938 201.996)"/><line class="c" x1="25.309" transform="translate(1028.938 201.996)"/><line class="f" x1="25.309" transform="translate(1028.938 201.996)"/><line class="c" x1="27.746" transform="translate(960.192 201.996)"/><line class="f" x1="27.746" transform="translate(960.192 201.996)"/><path class="c" d="M942.728,149.832a1.94,1.94,0,0,1,0,2.57c-3.11,3.461-12.461,12.715-23.514,12.715s-20.4-9.254-23.513-12.715a1.94,1.94,0,0,1,0-2.57c3.11-3.46,12.461-12.715,23.513-12.715s20.4,9.255,23.514,12.715"/><path class="d" d="M942.728,149.832a1.94,1.94,0,0,1,0,2.57c-3.11,3.461-12.461,12.715-23.514,12.715s-20.4-9.254-23.513-12.715a1.94,1.94,0,0,1,0-2.57c3.11-3.46,12.461-12.715,23.513-12.715S939.618,146.372,942.728,149.832Z"/><path class="c" d="M927.214,152.855c0,2.906-3.582,5.262-8,5.262s-8-2.356-8-5.262v-3.476h16Z"/><path class="j" d="M927.214,152.855c0,2.906-3.582,5.262-8,5.262s-8-2.356-8-5.262v-3.476h16Z"/><path class="c" d="M927.214,149.379c0,2.906-3.582,5.262-8,5.262s-8-2.356-8-5.262,3.582-5.262,8-5.262,8,2.356,8,5.262"/><ellipse class="k" cx="8" cy="5.262" rx="8" ry="5.262" transform="translate(911.214 144.117)"/><path class="c" d="M968.192,152.855c0,2.906-3.582,5.262-8,5.262s-8-2.356-8-5.262v-3.476h16Z"/><path class="d" d="M968.192,152.855c0,2.906-3.582,5.262-8,5.262s-8-2.356-8-5.262v-3.476h16Z"/><path class="c" d="M968.192,149.379c0,2.906-3.582,5.262-8,5.262s-8-2.356-8-5.262,3.582-5.262,8-5.262,8,2.356,8,5.262"/><ellipse class="e" cx="8" cy="5.262" rx="8" ry="5.262" transform="translate(952.192 144.117)"/><path class="c" d="M1002.938,152.855c0,2.906-3.582,5.262-8,5.262s-8-2.356-8-5.262v-3.476h16Z"/><path class="d" d="M1002.938,152.855c0,2.906-3.582,5.262-8,5.262s-8-2.356-8-5.262v-3.476h16Z"/><path class="c" d="M1002.938,149.379c0,2.906-3.582,5.262-8,5.262s-8-2.356-8-5.262,3.582-5.262,8-5.262,8,2.356,8,5.262"/><ellipse class="e" cx="8" cy="5.262" rx="8" ry="5.262" transform="translate(986.938 144.117)"/><path class="c" d="M1002.938,152.855c0,2.906-3.582,5.262-8,5.262s-8-2.356-8-5.262v-3.476h16Z"/><path class="d" d="M1002.938,152.855c0,2.906-3.582,5.262-8,5.262s-8-2.356-8-5.262v-3.476h16Z"/><path class="c" d="M1002.938,149.379c0,2.906-3.582,5.262-8,5.262s-8-2.356-8-5.262,3.582-5.262,8-5.262,8,2.356,8,5.262"/><ellipse class="e" cx="8" cy="5.262" rx="8" ry="5.262" transform="translate(986.938 144.117)"/><path class="c" d="M1002.938,141.355c0,2.906-3.582,5.262-8,5.262s-8-2.356-8-5.262v-3.476h16Z"/><path class="d" d="M1002.938,141.355c0,2.906-3.582,5.262-8,5.262s-8-2.356-8-5.262v-3.476h16Z"/><path class="c" d="M1002.938,137.879c0,2.906-3.582,5.262-8,5.262s-8-2.356-8-5.262,3.582-5.262,8-5.262,8,2.356,8,5.262"/><ellipse class="e" cx="8" cy="5.262" rx="8" ry="5.262" transform="translate(986.938 132.617)"/><path class="c" d="M1002.938,129.855c0,2.906-3.582,5.262-8,5.262s-8-2.356-8-5.262v-3.476h16Z"/><path class="j" d="M1002.938,129.855c0,2.906-3.582,5.262-8,5.262s-8-2.356-8-5.262v-3.476h16Z"/><path class="c" d="M1002.938,126.379c0,2.906-3.582,5.262-8,5.262s-8-2.356-8-5.262,3.582-5.262,8-5.262,8,2.356,8,5.262"/><ellipse class="k" cx="8" cy="5.262" rx="8" ry="5.262" transform="translate(986.938 121.117)"/><path class="c" d="M1036.938,152.855c0,2.906-3.582,5.262-8,5.262s-8-2.356-8-5.262v-3.476h16Z"/><path class="d" d="M1036.938,152.855c0,2.906-3.582,5.262-8,5.262s-8-2.356-8-5.262v-3.476h16Z"/><path class="c" d="M1036.938,149.379c0,2.906-3.582,5.262-8,5.262s-8-2.356-8-5.262,3.582-5.262,8-5.262,8,2.356,8,5.262"/><ellipse class="e" cx="8" cy="5.262" rx="8" ry="5.262" transform="translate(1020.938 144.117)"/><path class="c" d="M1036.938,141.355c0,2.906-3.582,5.262-8,5.262s-8-2.356-8-5.262v-3.476h16Z"/><path class="d" d="M1036.938,141.355c0,2.906-3.582,5.262-8,5.262s-8-2.356-8-5.262v-3.476h16Z"/><path class="c" d="M1036.938,137.879c0,2.906-3.582,5.262-8,5.262s-8-2.356-8-5.262,3.582-5.262,8-5.262,8,2.356,8,5.262"/><ellipse class="e" cx="8" cy="5.262" rx="8" ry="5.262" transform="translate(1020.938 132.617)"/><path class="c" d="M1036.938,129.855c0,2.906-3.582,5.262-8,5.262s-8-2.356-8-5.262v-3.476h16Z"/><path class="d" d="M1036.938,129.855c0,2.906-3.582,5.262-8,5.262s-8-2.356-8-5.262v-3.476h16Z"/><path class="c" d="M1036.938,126.379c0,2.906-3.582,5.262-8,5.262s-8-2.356-8-5.262,3.582-5.262,8-5.262,8,2.356,8,5.262"/><ellipse class="e" cx="8" cy="5.262" rx="8" ry="5.262" transform="translate(1020.938 121.117)"/><path class="c" d="M1036.938,118.359c0,2.906-3.582,5.262-8,5.262s-8-2.356-8-5.262v-3.476h16Z"/><path class="j" d="M1036.938,118.359c0,2.906-3.582,5.262-8,5.262s-8-2.356-8-5.262v-3.476h16Z"/><path class="c" d="M1036.938,114.883c0,2.906-3.582,5.262-8,5.262s-8-2.356-8-5.262,3.582-5.262,8-5.262,8,2.356,8,5.262"/><ellipse class="j" cx="8" cy="5.262" rx="8" ry="5.262" transform="translate(1020.938 109.621)"/><path class="c" d="M1067.938,209h-10a2,2,0,0,1-2-2V197a2,2,0,0,1,2-2h10a2,2,0,0,1,2,2v10a2,2,0,0,1-2,2"/><rect class="e" width="14" height="14" rx="2" transform="translate(1055.938 194.996)"/><path class="c" d="M999.938,273h-10a2,2,0,0,1-2-2V261a2,2,0,0,1,2-2h10a2,2,0,0,1,2,2v10a2,2,0,0,1-2,2"/><rect class="e" width="14" height="14" rx="2" transform="translate(987.938 258.996)"/><path class="c" d="M882.533,273h-10a2,2,0,0,1-2-2V261a2,2,0,0,1,2-2h10a2,2,0,0,1,2,2v10a2,2,0,0,1-2,2"/><rect class="e" width="14" height="14" rx="2" transform="translate(870.533 258.996)"/><path class="c" d="M924.214,273h-10a2,2,0,0,1-2-2V261a2,2,0,0,1,2-2h10a2,2,0,0,1,2,2v10a2,2,0,0,1-2,2"/><rect class="e" width="14" height="14" rx="2" transform="translate(912.214 258.996)"/><path class="c" d="M965.192,273h-10a2,2,0,0,1-2-2V261a2,2,0,0,1,2-2h10a2,2,0,0,1,2,2v10a2,2,0,0,1-2,2"/><rect class="e" width="14" height="14" rx="2" transform="translate(953.192 258.996)"/><path class="c" d="M1033.938,273h-10a2,2,0,0,1-2-2V261a2,2,0,0,1,2-2h10a2,2,0,0,1,2,2v10a2,2,0,0,1-2,2"/><rect class="e" width="14" height="14" rx="2" transform="translate(1021.938 258.996)"/><line class="c" x1="34.681" transform="translate(877.533 265.996)"/><line class="f" x1="34.681" transform="translate(877.533 265.996)"/><line class="c" x1="27" transform="translate(994.938 265.996)"/><line class="f" x1="27" transform="translate(994.938 265.996)"/><line class="c" x1="27" transform="translate(1028.938 265.996)"/><line class="f" x1="27" transform="translate(1028.938 265.996)"/><line class="c" x1="27.746" transform="translate(960.192 265.996)"/><line class="f" x1="27.746" transform="translate(960.192 265.996)"/><path class="c" d="M1067.938,273h-10a2,2,0,0,1-2-2V261a2,2,0,0,1,2-2h10a2,2,0,0,1,2,2v10a2,2,0,0,1-2,2"/><rect class="e" width="14" height="14" rx="2" transform="translate(1055.938 258.996)"/><path class="c" d="M955.192,241h10a2,2,0,0,0,2-2V229a2,2,0,0,0-2-2h-10a2,2,0,0,0-2,2v10a2,2,0,0,0,2,2"/><rect class="e" width="14" height="14" rx="2" transform="translate(953.192 226.996)"/><path class="c" d="M1023.938,241h10a2,2,0,0,0,2-2V229a2,2,0,0,0-2-2h-10a2,2,0,0,0-2,2v10a2,2,0,0,0,2,2"/><rect class="e" width="14" height="14" rx="2" transform="translate(1021.938 226.996)"/><path class="c" d="M989.938,241h10a2,2,0,0,0,2-2V229a2,2,0,0,0-2-2h-10a2,2,0,0,0-2,2v10a2,2,0,0,0,2,2"/><rect class="e" width="14" height="14" rx="2" transform="translate(987.938 226.996)"/><path class="c" d="M914.214,241h10a2,2,0,0,0,2-2V229a2,2,0,0,0-2-2h-10a2,2,0,0,0-2,2v10a2,2,0,0,0,2,2"/><rect class="e" width="14" height="14" rx="2" transform="translate(912.214 226.996)"/><line class="c" x2="33.405" transform="translate(926.214 233.996)"/><line class="f" x2="33.405" transform="translate(926.214 233.996)"/><line class="c" x2="41.03" transform="translate(877.533 233.996)"/><line class="f" x2="41.03" transform="translate(877.533 233.996)"/><line class="c" x2="27.746" transform="translate(967.192 233.996)"/><line class="f" x2="27.746" transform="translate(967.192 233.996)"/><path class="c" d="M872.533,241h10a2,2,0,0,0,2-2V229a2,2,0,0,0-2-2h-10a2,2,0,0,0-2,2v10a2,2,0,0,0,2,2"/><rect class="e" width="14" height="14" rx="2" transform="translate(870.533 226.996)"/><path class="c" d="M1070.938,152.855c0,2.906-3.582,5.262-8,5.262s-8-2.356-8-5.262v-3.476h16Z"/><path class="d" d="M1070.938,152.855c0,2.906-3.582,5.262-8,5.262s-8-2.356-8-5.262v-3.476h16Z"/><path class="c" d="M1070.938,149.379c0,2.906-3.582,5.262-8,5.262s-8-2.356-8-5.262,3.582-5.262,8-5.262,8,2.356,8,5.262"/><ellipse class="e" cx="8" cy="5.262" rx="8" ry="5.262" transform="translate(1054.938 144.117)"/><path class="c" d="M1070.938,141.355c0,2.906-3.582,5.262-8,5.262s-8-2.356-8-5.262v-3.476h16Z"/><path class="d" d="M1070.938,141.355c0,2.906-3.582,5.262-8,5.262s-8-2.356-8-5.262v-3.476h16Z"/><path class="c" d="M1070.938,137.879c0,2.906-3.582,5.262-8,5.262s-8-2.356-8-5.262,3.582-5.262,8-5.262,8,2.356,8,5.262"/><ellipse class="e" cx="8" cy="5.262" rx="8" ry="5.262" transform="translate(1054.938 132.617)"/><path class="c" d="M1070.938,129.855c0,2.906-3.582,5.262-8,5.262s-8-2.356-8-5.262v-3.476h16Z"/><path class="d" d="M1070.938,129.855c0,2.906-3.582,5.262-8,5.262s-8-2.356-8-5.262v-3.476h16Z"/><path class="c" d="M1070.938,126.379c0,2.906-3.582,5.262-8,5.262s-8-2.356-8-5.262,3.582-5.262,8-5.262,8,2.356,8,5.262"/><ellipse class="e" cx="8" cy="5.262" rx="8" ry="5.262" transform="translate(1054.938 121.117)"/><path class="c" d="M1070.938,118.359c0,2.906-3.582,5.262-8,5.262s-8-2.356-8-5.262v-3.476h16Z"/><path class="d" d="M1070.938,118.359c0,2.906-3.582,5.262-8,5.262s-8-2.356-8-5.262v-3.476h16Z"/><path class="c" d="M1070.938,114.883c0,2.906-3.582,5.262-8,5.262s-8-2.356-8-5.262,3.582-5.262,8-5.262,8,2.356,8,5.262"/><ellipse class="d" cx="8" cy="5.262" rx="8" ry="5.262" transform="translate(1054.938 109.621)"/><path class="c" d="M1070.938,106.862c0,2.906-3.582,5.262-8,5.262s-8-2.356-8-5.262v-3.476h16Z"/><path class="j" d="M1070.938,106.862c0,2.906-3.582,5.262-8,5.262s-8-2.356-8-5.262v-3.476h16Z"/><path class="c" d="M1070.938,103.386c0,2.906-3.582,5.262-8,5.262s-8-2.356-8-5.262,3.582-5.262,8-5.262,8,2.356,8,5.262"/><ellipse class="j" cx="8" cy="5.262" rx="8" ry="5.262" transform="translate(1054.938 98.124)"/><path class="c" d="M968.192,141.355c0,2.906-3.582,5.262-8,5.262s-8-2.356-8-5.262v-3.476h16Z"/><path class="j" d="M968.192,141.355c0,2.906-3.582,5.262-8,5.262s-8-2.356-8-5.262v-3.476h16Z"/><path class="c" d="M968.192,137.879c0,2.906-3.582,5.262-8,5.262s-8-2.356-8-5.262,3.582-5.262,8-5.262,8,2.356,8,5.262"/><ellipse class="k" cx="8" cy="5.262" rx="8" ry="5.262" transform="translate(952.192 132.617)"/><line class="c" x2="27" transform="translate(1001.938 233.996)"/><line class="f" x2="27" transform="translate(1001.938 233.996)"/><path class="c" d="M1057.938,241h10a2,2,0,0,0,2-2V229a2,2,0,0,0-2-2h-10a2,2,0,0,0-2,2v10a2,2,0,0,0,2,2"/><rect class="e" width="14" height="14" rx="2" transform="translate(1055.938 226.996)"/><line class="f" y2="25" transform="translate(1062.938 201.996)"/><line class="c" x2="27" transform="translate(1035.938 233.996)"/><line class="f" x2="27" transform="translate(1035.938 233.996)"/><line class="f" y2="25" transform="translate(877.533 233.996)"/><line class="l" x2="6" transform="translate(916.136 126.117)"/><line class="l" y2="6" transform="translate(919.136 123.117)"/><line class="c" x1="33.978" transform="translate(919.214 265.996)"/><line class="f" x1="33.978" transform="translate(919.214 265.996)"/><line class="c" x1="34" transform="translate(1062.938 265.996)"/><line class="f" x1="34" transform="translate(1062.938 265.996)"/><path class="c" d="M928.214,213h-18a2,2,0,0,1-2-2V193a2,2,0,0,1,2-2h18a2,2,0,0,1,2,2v18a2,2,0,0,1-2,2"/><rect class="k" width="22" height="22" rx="2" transform="translate(908.214 190.996)"/><path class="l" d="M923.714,199l-6.066,6-2.934-2.9"/></g></g></svg>