<svg xmlns="http://www.w3.org/2000/svg" xmlns:xlink="http://www.w3.org/1999/xlink" width="237" height="259" viewBox="0 0 237 259"><defs><style>.a,.d,.e,.f,.g{fill:none;}.b{clip-path:url(#a);}.c{fill:#091440;}.d{stroke:#fff;}.d,.e,.g{stroke-linecap:round;stroke-width:2px;}.d,.e,.f{stroke-linejoin:round;}.e,.f,.g{stroke:#2dd8a3;}.f{stroke-linecap:square;stroke-width:4px;}</style><clipPath id="a"><rect class="a" width="237" height="259" rx="7" transform="translate(1361.954 32.926)"/></clipPath></defs><g transform="translate(-1361.954 -32.926)"><g class="b"><path class="c" d="M1519.51,184.087a39.056,39.056,0,1,1-39.056-39.056,39.056,39.056,0,0,1,39.056,39.056"/><circle class="d" cx="39.056" cy="39.056" r="39.056" transform="translate(1429.425 162.95) rotate(-22.5)"/><path class="c" d="M1511.706,184.087a31.252,31.252,0,1,1-31.252-31.252,31.252,31.252,0,0,1,31.252,31.252"/><circle class="e" cx="31.252" cy="31.252" r="31.252" transform="matrix(0.383, -0.924, 0.924, 0.383, 1439.621, 201)"/><line class="f" y2="47.835" transform="translate(1480.454 160.196)"/><line class="f" x1="47.835" transform="translate(1456.536 184.114)"/><line class="f" x1="33.824" y2="33.824" transform="translate(1463.542 167.202)"/><line class="f" x1="33.824" y1="33.824" transform="translate(1463.542 167.202)"/><line class="f" x2="18.306" y2="44.193" transform="translate(1471.301 162.017)"/><line class="f" x1="44.193" y2="18.305" transform="translate(1458.358 174.961)"/><line class="f" x1="18.306" y2="44.193" transform="translate(1471.301 162.017)"/><line class="f" x1="44.193" y1="18.305" transform="translate(1458.358 174.961)"/><path class="c" d="M1480.454,184.086l11.8-16.246a20.081,20.081,0,1,1-28.049,4.443,19.474,19.474,0,0,1,16.246-8.278Z"/><path class="e" d="M1480.454,184.086l11.8-16.246a20.081,20.081,0,1,1-28.049,4.443,19.474,19.474,0,0,1,16.246-8.278Z"/><path class="c" d="M1480.454,184.086V164.005a19.243,19.243,0,0,1,11.8,3.835Z"/><path class="d" d="M1480.454,184.086V164.005a19.243,19.243,0,0,1,11.8,3.835Z"/><line class="g" y1="127.095" x2="127.095" transform="translate(1537.355 1)"/><line class="g" x1="127.095" y1="127.095" transform="translate(1296.458 1)"/><line class="g" x1="127.095" y2="127.095" transform="translate(1296.458 241.896)"/><line class="g" x2="127.095" y2="127.095" transform="translate(1537.355 241.896)"/><line class="g" x2="5.764" transform="translate(1567.148 184.996)"/><line class="g" y1="5.764" transform="translate(1480.454 92.538)"/><line class="g" x1="5.764" transform="translate(1387.996 184.995)"/><rect class="g" width="103.776" height="103.776" rx="2.114" transform="translate(1428.567 133.108)"/><path class="g" d="M1480.454,277.454h0A92.458,92.458,0,1,1,1572.912,185,92.458,92.458,0,0,1,1480.454,277.454Z"/><path class="g" d="M1480.454,265.191h0a80.2,80.2,0,1,1,80.2-80.2A80.195,80.195,0,0,1,1480.454,265.191Z"/><path class="g" d="M1480.454,271.689h0a86.694,86.694,0,1,1,86.694-86.694A86.694,86.694,0,0,1,1480.454,271.689Z"/><rect class="c" width="158.865" height="11.056" transform="translate(1401.022 251.183)"/><rect class="g" width="158.865" height="11.056" transform="translate(1401.022 251.183)"/><rect class="c" width="176.294" height="11.056" transform="translate(1392.307 262.32)"/><rect class="g" width="176.294" height="11.056" transform="translate(1392.307 262.32)"/><rect class="c" width="195.433" height="11.056" transform="translate(1382.738 273.376)"/><rect class="g" width="195.433" height="11.056" transform="translate(1382.738 273.376)"/><rect class="c" width="215.51" height="11.056" transform="translate(1372.699 284.432)"/><rect class="g" width="215.51" height="11.056" transform="translate(1372.699 284.432)"/><path class="g" d="M1521.413,150.569v-3.681a1,1,0,0,0-.51-.871l-3.311-1.863a1,1,0,0,0-.981,0l-3.311,1.863a1,1,0,0,0-.51.871v3.681a1,1,0,0,0,.51.872l3.311,1.862a1,1,0,0,0,.981,0l3.311-1.862A1,1,0,0,0,1521.413,150.569Z"/><path class="g" d="M1521.413,223.1v-3.681a1,1,0,0,0-.51-.871l-3.311-1.863a1,1,0,0,0-.981,0l-3.311,1.863a1,1,0,0,0-.51.871V223.1a1,1,0,0,0,.51.872l3.311,1.862a1,1,0,0,0,.981,0l3.311-1.862A1,1,0,0,0,1521.413,223.1Z"/><path class="g" d="M1448.118,223.1v-3.681a1,1,0,0,0-.51-.871l-3.311-1.863a1,1,0,0,0-.981,0l-3.311,1.863a1,1,0,0,0-.51.871V223.1a1,1,0,0,0,.51.872l3.311,1.862a1,1,0,0,0,.981,0l3.311-1.862A1,1,0,0,0,1448.118,223.1Z"/><path class="g" d="M1448.118,150.569v-3.681a1,1,0,0,0-.51-.871l-3.311-1.863a1,1,0,0,0-.981,0l-3.311,1.863a1,1,0,0,0-.51.871v3.681a1,1,0,0,0,.51.872l3.311,1.862a1,1,0,0,0,.981,0l3.311-1.862A1,1,0,0,0,1448.118,150.569Z"/></g></g></svg>