<svg xmlns="http://www.w3.org/2000/svg" xmlns:xlink="http://www.w3.org/1999/xlink" width="237" height="259" viewBox="0 0 237 259"><defs><style>.a,.c,.d,.e,.f,.g,.h,.i,.j,.l{fill:none;}.b{clip-path:url(#a);}.c,.d,.f,.g,.h,.i,.j{stroke:#2970ff;}.c,.d,.e,.f,.g,.h,.i,.j,.l{stroke-linecap:round;stroke-linejoin:round;stroke-width:2px;}.d{stroke-dasharray:2.005 5.011;}.e,.l{stroke:#fff;}.f{stroke-dasharray:2.007 5.018;}.g{stroke-dasharray:1.971 4.928;}.h{stroke-dasharray:2.022 5.056;}.i{stroke-dasharray:1.981 4.953;}.j{stroke-dasharray:1.962 4.905;}.k{fill:#091440;}.l{stroke-dasharray:1.607 4.018;}</style><clipPath id="a"><rect class="a" width="237" height="259" rx="7" transform="translate(1107.954 34.926)"/></clipPath></defs><g transform="translate(-1107.954 -34.926)"><g class="b"><line class="c" x2="1" transform="translate(1246.454 128.434)"/><path class="d" d="M1252.445,128.109a13.876,13.876,0,0,0,10.871-13.545V102.248a15,15,0,0,1,15-15h62.132"/><line class="c" x2="1" transform="translate(1342.954 87.248)"/><path class="e" d="M1245.454,137.2h54.85a15,15,0,0,0,15-15V84.829a15,15,0,0,1,15-15h14.65"/><line class="c" x1="1" transform="translate(1203.454 225.339)"/><path class="f" d="M1198.436,225.339h-1.925a15,15,0,0,0-15,15v28.084a15,15,0,0,1-15,15h-74.934"/><line class="c" x1="1" transform="translate(1088.067 283.423)"/><line class="c" x2="1" transform="translate(1095.691 161.201)"/><path class="g" d="M1101.619,161.2h59.045a15,15,0,0,1,15,15v19.038a15,15,0,0,0,15,15h10.326"/><line class="c" x2="1" transform="translate(1203.454 210.239)"/><line class="c" x1="1" transform="translate(1203.454 232.819)"/><path class="h" d="M1198.4,232.819H1161.76a15,15,0,0,0-15,15v3.09a15,15,0,0,1-15,15h-38.031"/><line class="c" x1="1" transform="translate(1090.2 265.909)"/><line class="c" x2="1" transform="translate(1246.454 154.04)"/><path class="i" d="M1252.407,154.04h1.23a15,15,0,0,1,15,15V186.2a15,15,0,0,0,15,15h56.84"/><line class="c" x2="1" transform="translate(1342.954 201.201)"/><line class="c" x1="1" transform="translate(1342.954 183.947)"/><path class="j" d="M1338.049,183.947h-33.794a15,15,0,0,1-15-15v-9.041a15,15,0,0,0-15-15h-24.348"/><line class="c" x1="1" transform="translate(1246.454 144.906)"/><line class="e" x1="98.5" transform="translate(1106.954 141.201)"/><path class="e" d="M1205.454,217.688h-58.491a15,15,0,0,1-15-15V198.27a15,15,0,0,0-15-15h-11.009"/><line class="e" x2="98.5" transform="translate(1245.454 221.201)"/><path class="k" d="M1242.454,162.2h-34a4,4,0,0,1-4-4v-34a4,4,0,0,1,4-4h34a4,4,0,0,1,4,4v34a4,4,0,0,1-4,4"/><rect class="c" width="42" height="42" rx="4" transform="translate(1204.454 120.201)"/><path class="k" d="M1238.454,132.643l-10.1,23.85-3.975-1.683a4.317,4.317,0,0,0-7.95-3.367l-3.975-1.683,10.1-23.85,3.975,1.683a4.317,4.317,0,0,0,7.95,3.367Z"/><path class="e" d="M1238.454,132.643l-10.1,23.85-3.975-1.683a4.317,4.317,0,0,0-7.95-3.367l-3.975-1.683,10.1-23.85,3.975,1.683a4.317,4.317,0,0,0,7.95,3.367Z"/><line class="e" x2="0.921" y2="0.39" transform="translate(1217.503 137.834)"/><line class="l" x2="8.509" y2="3.604" transform="translate(1222.124 139.791)"/><line class="e" x2="0.921" y2="0.39" transform="translate(1232.483 144.178)"/><path class="k" d="M1242.454,242.2h-34a4,4,0,0,1-4-4v-34a4,4,0,0,1,4-4h34a4,4,0,0,1,4,4v34a4,4,0,0,1-4,4"/><rect class="c" width="42" height="42" rx="4" transform="translate(1204.454 200.201)"/><path class="k" d="M1238.454,212.643l-10.1,23.85-3.975-1.683a4.317,4.317,0,0,0-7.95-3.367l-3.975-1.683,10.1-23.85,3.975,1.683a4.317,4.317,0,0,0,7.95,3.367Z"/><path class="e" d="M1238.454,212.643l-10.1,23.85-3.975-1.683a4.317,4.317,0,0,0-7.95-3.367l-3.975-1.683,10.1-23.85,3.975,1.683a4.317,4.317,0,0,0,7.95,3.367Z"/><line class="e" x2="0.921" y2="0.39" transform="translate(1217.503 217.834)"/><line class="l" x2="8.509" y2="3.604" transform="translate(1222.124 219.791)"/><line class="e" x2="0.921" y2="0.39" transform="translate(1232.483 224.178)"/></g></g></svg>